<?xml version="1.0" encoding="utf-8"?>
<!-- Generator: Adobe Illustrator 24.3.0, SVG Export Plug-In . SVG Version: 6.00 Build 0)  -->
<svg version="1.1" id="Layer_2" xmlns="http://www.w3.org/2000/svg" xmlns:xlink="http://www.w3.org/1999/xlink" x="0px" y="0px"
	 viewBox="0 0 312.5 313.7" style="enable-background:new 0 0 312.5 313.7;" xml:space="preserve">
<style type="text/css">
	.st0{clip-path:url(#SVGID_2_);fill-rule:evenodd;clip-rule:evenodd;fill:#99FF00;}
	.st1{clip-path:url(#SVGID_2_);fill-rule:evenodd;clip-rule:evenodd;fill:#FF9966;}
	.st2{clip-path:url(#SVGID_2_);fill:#FF0099;}
	.st3{clip-path:url(#SVGID_2_);}
	.st4{clip-path:url(#SVGID_2_);fill:none;stroke:#000000;stroke-miterlimit:10;}
	.st5{fill:none;stroke:#000000;stroke-width:4;stroke-miterlimit:10;}
</style>
<g>
	<g>
		<defs>
			<circle id="SVGID_1_" cx="156.3" cy="156.8" r="152.8"/>
		</defs>
		<clipPath id="SVGID_2_">
			<use xlink:href="#SVGID_1_"  style="overflow:visible;"/>
		</clipPath>
		<ellipse id="path6875" class="st0" cx="156.1" cy="156.7" rx="154.6" ry="152.9"/>
		<path id="path6873" class="st1" d="M48.9,288.5L48,309.2l5.9,5.9l24.5,7.2l19.8,0.8l38,1.7l4.2,2.1l9.3,0.8l3.4-2.1l11.8-5.1
			l28.7,4.2l21.5-0.8l39.3-24.5L263,283l1.3-7.2l0.8-8l-19-59.1l1.3-21.1l0.8-5.9l6.3-4.2l1.3-2.5l-0.4-10.6l5.5-24.1l-29.1-18.6
			l-18.2,5.1l1.7,10.1l4.2,3l5.5-0.4l2.5-1.3l-0.8,8.9l-25.3,54.1l3.8,52.8c0,0-27.5-65-29.1-68c-1.7-3-26.2-77.7-26.2-77.7l46-43.5
			l-1.7-27l-15.2-8.4l-9.7,7.6l-1.3,6.3l3,7.2l-12.2,2.1l-5.5,8.9l-5.1,7.2l-11.8,3.4l-4.6,5.9l-5.1,15.6l-14.8,7.2l0.8,11.4
			l-0.4,13.5l-6.8,6.8l-1.3,11.8l5.1,5.5v24.1l0.8,14.4l8.4,23.2l21.5,34.2l3,18.2l-25.3,28.3l-7.6-18.6v-43.9l-1.3-21.1l-2.5-6.3
			l-0.4-9.7l-8.4-8v-9.7l-4.2-3.8l-5.9,1.7l-1.7-5.1l1.3-3.4v-3l-2.5-2.5l-3.8-3.8l2.1-3.8l-2.1-5.1l-5.5-5.9l2.5-2.1v-2.5l-3-4.2
			l-0.8-3.4v-3l2.5-4.6v-2.5l1.7-1.7v-3.4l-5.9-7.6l-14.4,17.3l-9.3,51.5l22.8,51.1l-22,54.5L48.9,288.5z"/>
		<path id="path6186" class="st2" d="M25.9,271.4c0.6,0.3,1.3,0.6,1.9,1c0.9-1.4,1.9-2.8,2.8-4.2c0.1,0,0.1,0,0.2,0.1
			c0,0.8,0.1,1.6,0.1,2.4c0.1,0,0.2,0,0.3,0c0.4-1.7,0.9-3.5,1.2-4.9c0.9-0.5,1.5-0.8,2.1-1.2c0.2,0.7,0.6,1.4,0.7,2.2
			c0.1,0.3-0.3,0.8-0.5,1.2c0.5,0.2,1,0.4,1.7,0c1-0.7,2.1-1.2,3.3-1.8c-0.6-0.8-1.2-1.6-1.9-2.5c-0.4-0.6-0.9-1.2-1.2-1.9
			c-0.4-0.9-0.1-1.5,0.8-1.9c0.6-0.3,0.6-0.7,0.4-1.2c-0.3-0.7-0.6-1.4-0.8-2.2c-0.3-1.3,0.4-2.2,1.7-2.4c0.8-0.1,1.1-0.8,0.8-1.5
			c-0.5-1.1-0.3-1.7,1-1.8c0.2,0,0.4-0.2,0.5-0.4c0.2-0.4,0.4-0.8,0.7-1.1c0.8-1.2,1.5-1.2,2.4,0.2c0-0.5,0-0.9,0-1.2
			c0.1-0.7,0.1-1.5,0.3-2.1c0.2-0.7,0.9-1.1,1.6-0.9c0.5,0.1,1.1,0.5,1.4,0.9c0.4,0.6,0.2,1.3-0.3,1.8c-0.5,0.6-1,1.2-1.4,1.8
			c0.7-0.3,1.3-0.7,2-0.8c0.8-0.1,1.7-0.2,2.5,0c1,0.3,1.5-0.2,2.1-0.8c0.9-1,1.7-2.1,2.6-3c0.3-0.4,0.4-0.6,0.2-1.1
			c-0.4-0.9-0.1-1.7,0.6-2.3c0.4-0.3,0.8-0.6,1.2-0.9c0.9-0.7,1.2-1.5,1-2.6c-0.1-0.3,0-0.8,0.2-1c0.9-1.1,0.2-3.2-1.2-3.6
			c-0.3-0.1-0.8-0.3-0.8-0.4c0-0.6,0.1-1.3,0.2-1.9c0-0.2,0.3-0.3,0.5-0.5c-0.1-0.3-0.4-0.6-0.4-0.8c0-0.5,0-1.1,0.2-1.3
			c0.3-0.3,1-0.4,1.3-0.2c1.2,0.6,2.3,1.4,3.5,2.1c0,0,0.1,0,0.1-0.1c0.1-3.5,0.2-6.9,0.1-10.4c-0.1-3.2-1.2-6.2-2.3-9.2
			c-1.6-4.8-4-9.2-6.7-13.5c-2.8-4.4-4.7-9.3-6.2-14.3c-1.3-4.2-2.2-8.6-2.8-12.9c-0.5-3.5-0.7-7.1-0.3-10.6c0.4-3,0.6-6.1,1.2-9.1
			c0.7-3.2,1.7-6.3,2.6-9.5c0.8-2.8,1.7-5.5,2.7-8.2c0.3-0.8,0.7-1.6,1-2.4c0.6-1.3,1.2-2.6,1.9-3.8c0.9-1.7,1.9-3.3,2.8-4.9
			c0.7-1.2,1.6-2.4,2.2-3.7c1.8-4.1,4.3-7.6,7.6-10.5c0.5-0.4,0.9-1,1.2-1.6c0.9-1.6,2.1-2.9,3.6-3.8c2.7-1.6,5.5-0.8,6.7,2.1
			c0.4,1,0.6,2.1,0.9,3.2c0.1,0.2,0,0.5,0.2,0.7c1.3,1.2,1.2,2.7,1,4.2c-0.1,1.1-0.2,2.4-0.7,3.4c-0.6,1-0.7,1.9-0.5,3
			c0.3,1.5-0.3,2.9-1.4,4c-1.1,1-1.1,2.4-1.3,3.7c0,0.1,0,0.2,0,0.3c0.1,1.5,0.1,2.9,1.6,4c1.4,1.1,2,2.8,1.8,4.6c0,0.2,0,0.5,0,0.7
			c0.1,1.5,0,3-1.1,4.2c4.9,4.2,6.8,9.4,5.6,15.8c0.1,0.1,0.4,0.2,0.6,0.4c3.3,2.2,5.2,5.1,4.6,9.2c-0.1,0.6-0.5,1.2-0.9,2
			c0.6,0.8,1.4,1.8,2.3,2.8c0.1,0.2,0.6,0.2,0.8,0.1c1.8-0.7,3.3-0.4,4.7,1c3,3,4.4,6.4,3.3,10.6c0,0.2-0.1,0.4,0,0.5
			c0.9,1.1,1.3,2.5,2.6,3.3c4.2,2.7,6.3,6.8,7.1,11.7c0.2,1.4,0.1,2.9,0.2,4.4c0.1,0.6,0.2,1.3,0.5,1.9c1,2.3,2,4.6,3,6.9
			c0.1,0.2,0.2,0.5,0.2,0.8c0.1,3.6,0.2,7.2,0.3,10.7c0,0.3,0.1,0.5,0.2,1c1-0.7,2.1-1.1,2.6-2.3c0.3-0.6,0.8-1.2,1.2-1.8
			c0.1,0,0.2,0.1,0.3,0.1c-0.2,0.5-0.5,1-0.7,1.5c1.1-0.2,1.4-0.6,1.4-1.7c0-0.5,0.1-1.1,0.2-1.6c0.1-0.4,0.2-0.8,0.3-1.2
			c0.6,0.1,0.8,0.5,1.4,2.9c0.1-0.2,0.3-0.5,0.3-0.7c0-1.6-0.8-2.9-1.6-4.2c-0.3,0.6-0.7,1.2-1,1.8c-0.1,0.2,0.1,0.5,0,0.7
			c0,0.4-0.1,1.1-0.2,1.1c-0.6,0.1-1.2,0.1-1.8-0.1c-0.2-0.1-0.4-0.9-0.2-1.2c0.5-1,1.2-1.9,1.8-2.8c0.2-0.3,0.5-0.5,0.9-0.9
			c-0.7-1.8-1.5-3.6-2.1-5.6c-1.7-5.6-3.3-11.3-5-16.9c-0.1-0.4-0.3-0.9-0.5-1.3c-1.7-2.6-2.7-5.5-2.6-8.6c0.1-5-0.8-9.9-1-14.9
			c-0.1-3.1-0.1-6.2-0.2-9.3c0-1.9,0.1-3.8,0.1-5.8c0-0.4-0.2-0.8-0.4-1.1c-1.3-2.7-2.5-5.3-2.7-8.3c-0.3-4.4-0.2-8.8,1.5-13
			c0.9-2.2,2.2-4.2,4.1-5.8c0.4-0.4,0.7-1.1,0.8-1.8c0.4-2.2,0.7-4.5,0.9-6.7c0.1-1.8,0.1-3.6-0.2-5.3c-1-4.9,0.6-8.8,4-12.2
			c1.8-1.9,4.1-3.1,6.3-4.5c0.3-0.2,0.6-0.5,0.8-0.8c2.5-3,4.8-6.1,7.4-9.1c0.9-1,1.6-2,1.9-3.4c0.5-2.2,1.7-4.1,3-5.8
			c1.5-2,3.3-3.7,5.4-5.1c2.2-1.5,4.6-2.1,7.2-1.6c0.3,0.1,0.8,0,1.1-0.2c1.4-1.1,2.9-2.2,4.2-3.4c0.3-0.2,0.5-0.6,0.5-0.9
			c0.4-4.5,2.5-8.1,6.1-10.8c0.9-0.7,2.3-0.9,3.5-1.1c0.8-0.2,1.7,0,2.6,0c0.4,0,0.8-0.3,1.2-0.5c0.2-0.1,0.3-0.4,0.5-0.5
			c1.1-1.2,1.8-2.3,1.3-4.1c-0.4-1.7-0.2-3.6,0.2-5.4c0.6-2.5,1.9-4.7,4.1-6.1c0.5-0.3,0.6-0.6,0.7-1.2c0.2-3.8-0.8-7.3-2.2-10.8
			c-0.4-0.9-0.6-2-1-2.9c-0.5-1-0.3-1.8,0.5-2.6c0.2-0.2,0.3-0.4,0.5-0.3c0.7,0,1.3,0,2,0c3.4-0.1,6.6,0.4,9.7,1.8
			c4.2,1.9,8,4.4,11.1,7.8c2.9,3.2,5.2,6.7,6.6,10.9c1.5,4.3,1.8,8.7,2.1,13.2c0.3,5.3-0.4,10.4-2,15.4c-1.7,5.5-4.1,10.8-6.9,15.8
			c-1.2,2.1-2.3,4.2-3.6,6.2c-1.4,2.3-3,4.5-4.6,6.7c-2.4,3.4-4.9,6.7-7.3,10c-2.1,2.9-4.2,5.9-6.1,9c-2.3,3.7-4.3,7.6-6.4,11.4
			c-0.3,0.5-0.3,1.1-0.3,1.6c-0.2,6.8,1.2,13.4,3.1,19.8c0.3,1.2,0.7,2.4,0.8,3.6c0.4,3,1.8,5.6,3.1,8.3c2,3.9,4,7.8,6,11.6
			c0.2,0.3,0.3,0.6,0.5,0.9c0.4-1,0.7-2,1.1-2.9c0.2-0.5,0.6-0.9,1-1.3c0.4-0.4,0.9-0.7,1.5-0.3s0.6,1,0.4,1.5
			c-0.3,0.8-0.7,1.5-1.1,2.2c-0.5,0.9-1.2,1.7-1.9,2.6c0.2,0.3,0.4,0.9,0.8,1.6c0.1-0.3,0.2-0.4,0.2-0.5c0.3-0.7,0.7-1.3,1.6-1.3
			c0.9,0,1.4,0.7,1.5,1.4c0.2,0.8,0.3,1.7,0.3,2.6c0,0.9-0.6,1.5-1.5,1.7c1.1,2.1,2.1,4.1,3.2,6.1c0.3,0,0.5-0.1,0.7-0.1
			c0.7,0,1.2,0.5,0.8,1.1c-0.6,1-0.2,1.8,0.5,2.6c1.2-0.8,2.3-1.6,3.5-2.4l0.1,0.1c-0.7,0.8-1.5,1.7-2.2,2.4c-0.9,1-1,0.9-0.1,2.2
			c0.3-2.2,2.3-1.9,3.8-2.6c-0.4-0.9-0.7-1.8-1.1-2.7c-0.1-0.1-0.3-0.2-0.4-0.2c-1.2-0.2-1.7-1.1-1.2-2.3c0.4-1,1.8-1.5,2.7-1.1
			c0.7,0.3,1.1,1.1,0.8,1.9c-0.2,0.5-0.1,0.8,0.3,1.2c0.2,0.2,0.3,0.5,0.5,0.7c0.7,0.7,0.9,1.4,0.4,2.4s0,1.4,1.2,1.3
			c0.1,0.5,0.2,1,0.4,1.7c0.8-1.2-0.2-2.5,1-3.4c0,0.3,0.1,0.5,0.1,0.7c0.8,0,1.3,0.4,1.4,1.3c0.3-0.3,0.5-0.5,0.8-0.6
			s0.6-0.2,0.8-0.2c0,0.3,0.1,0.6,0,0.9c-0.5,1-1.1,2-1.8,3.1c0.8,0.4,1.6,0.8,2.5,1.2c0.5-1.6,0.8-3.2,1.4-4.8
			c0.7-1.8,0.7-3.4-0.3-5c-0.3-0.5-0.3-1.1-0.5-1.8c-0.4,0.4-0.9,0.7-1.2,1.1c-0.1,0.2-0.2,0.5-0.2,0.7c0,0.8,0.2,1.5,0.2,2.3
			c0,0.3,0,0.6-0.1,0.8s-0.4,0.4-0.6,0.4c-0.1,0-0.4-0.3-0.4-0.5c-0.2-0.8-0.3-1.5-0.4-2.3c0-0.2,0.1-0.4,0.2-0.6
			c0.8-1.6,1.6-3.3,2.5-4.9c0.1-0.3,0.3-0.5,0.6-0.7c1-0.6,1.9-1.2,2.8-1.8c-0.5-0.6-0.9-1.1-1.3-1.7c-0.1,0-0.4,0.1-0.9,0.3
			c0.7-1.2,0.7-2.6,2.1-3.5c0,1.3,0,2.3,0,3.3c0.1,0,0.2,0,0.2,0.1c0.1-0.3,0.2-0.6,0.3-0.9c0.1-0.4,0.2-0.9,0.3-1.4
			c0.2-1.3,0.9-2.1,2-2.5c0.4-0.2,0.7-0.5,1.2-0.1c0.1,0.1,0.7-0.2,0.9-0.4c0.3-0.2,0.3-0.6,0.5-1c0-0.1-0.1-0.1-0.1-0.2
			c-0.7,0.2-1.5,0.4-2.2,0.7c0-0.1-0.1-0.1-0.1-0.2c0.2-0.1,0.3-0.3,0.5-0.4c0.8-0.4,1.6-0.7,2.4-1.1c0.3-0.1,0.5-0.4,0.7-0.6
			c2.6-5.3,6.4-9.7,10.5-13.9c2.1-2.1,3.4-4.5,4.2-7.3c0.2-0.8,0.5-1.6,0.7-2.4c0.1-0.3,0-0.7-0.2-0.9c-0.3-0.2-0.9-0.5-1.1-0.4
			c-2.1,1.1-4.1,0.8-6.2,0.1c-0.9-0.3-1.7-0.8-2.5-1.3c-0.8-0.6-1.5-1.4-2.3-2.1c-0.1-0.1-0.4-0.2-0.5-0.2c-1.3-0.2-2.5-0.4-3.8-0.6
			c-3.3-0.5-4.8-3.6-3.3-6.6c1.4-3,3.4-5.5,5.7-7.9c2.5-2.5,5.6-4,9-4.5c3.9-0.6,7.8-0.8,11.7-0.2c1.7,0.3,3.4,0.7,5.1,1.1
			c1.8,0.4,3.5,1,5.3,1.4c0.8,0.2,1.7,0.2,2.6,0.3c3.7,0.7,6.8,2.6,9.5,5.3c3.2,3.2,6.1,6.8,8,10.9c1.8,3.9,2.9,8,2.8,12.4
			c-0.1,2.9-0.1,5.8-1.2,8.6c-1.5,3.9-3.4,7.6-5.8,11.1c-0.8,1.2-1.6,2.4-2.4,3.6c-0.1,0.2-0.2,0.5-0.2,0.6c0.8,1.9,0.2,3.5-0.7,5.2
			c-1.1,2-2.7,3.6-4.4,5.2c-0.4,0.4-0.8,0.8-0.9,1.3c-0.5,2.4-1,4.8-1.2,7.2c-0.2,3.1-0.2,6.3-0.2,9.5c0,1.9,0.4,3.8,1,5.6
			c0.5,1.6,1.3,3.1,1.8,4.6c0.3,0.8,0.7,1.1,1.6,1c0.2,0,0.4,0,0.6,0.1c-0.3,0.1-0.5,0.2-0.8,0.3c0.1,0.4,0.3,0.8,0.5,1.4
			c1-0.9,1.9-1.7,2.8-2.5c0.5,0.5,0.5,0.9-0.1,1.4c-0.9,0.8-1.8,1.5-2.8,2.2c0.5,1,1,2,1.6,3.1c2.4-3.1,4.7-6.1,8.1-8
			c0,0.9-3.5,5.2-7.4,9.2c0.3,0.4,0.6,0.9,1,1.2c0.7,0.6,0.8,1.3,0.9,2.1c0.4,2.7,0.9,5.3,1.4,8c0.2,1,0.5,2,0.7,3.1
			c0.1,0.3,0,0.6,0,0.9c0,0.3,0.2,0.5,0.2,0.8c0.2-0.2,0.6-0.3,0.7-0.5c0.1-0.9,0.2-1.8,0.1-2.7c-0.4-2.6-0.9-5.1-1.4-7.6
			c-0.1-0.4-0.1-0.9-0.1-1.4c0.4,0.2,0.7,0.4,1,0.6c0-0.9,0-1.8,0-2.7c-0.5,0-1,0.1-1.5,0.1c-1.3,0-1.7-0.5-1.6-1.7
			c0.1-0.6,0.4-1.3,0.6-1.9c0.1,0,0.3,0.1,0.4,0.1c-0.1,0.7-0.1,1.4-0.2,2c-0.1,0.8,0.1,1.1,0.9,1.1c0.5,0,1,0,1.4-0.2
			c1.1-0.5,2.2-0.9,3.5-0.8c0.2,0,0.5-0.3,0.9-0.6c-1-0.4-1.8-1-1.7-2c0-0.6,0.3-1.2,0.4-1.8c1.2,0.5,2.2,1,3.3,1.5
			c0.1-0.1,0.4-0.4,0.7-0.6c0.2-0.1,0.5-0.1,0.8-0.2c0,0.3,0.1,0.6,0,0.8c-0.3,0.6-0.7,1.2-1.2,2.1c0.9,1.1,1.9,2.3,2.9,3.5
			c1.2,1.4,2.4,2.9,3.5,4.3c0.1,0.2,0,0.6,0,0.8c-0.2-0.1-0.5-0.2-0.7-0.4c-0.6-0.6-1.2-1.2-1.7-1.9c-1.4-1.8-2.7-3.7-4.1-5.5
			c-0.1-0.2-0.2-0.3-0.4-0.6c-0.3,0.3-0.6,0.6-0.9,0.9c0.2,0.2,0.5,0.3,0.5,0.5c0.1,0.4,0.3,0.8,0.2,1.1c-0.1,0.3-0.5,0.5-0.9,0.6
			c-0.2,0.1-0.5,0-0.7,0c-0.9-0.3-1.4,0.3-1.8,1c-0.5,0.6-0.1,1.1,0.2,1.6c0.1,0.3,0.4,0.6,0.5,0.9c0.6,1.2,1.3,2.3,2.8,2.6
			c0.1,0,0.2,0.1,0.4,0.2c0,0,0,0.1,0.1,0.2c-1-0.4-2-0.8-3.1-1.3c0,0.1-0.1,0.1-0.1,0.2c0.3,0.5,0.6,1.1,1,1.6
			c-1.1,0.8-2.6,0.9-3.1,2.5c0.7-0.2,1.4-0.3,2.3-0.6c-0.5,1-0.9,1.9-1.4,2.7c-0.7,1.4-1.5,2.7-2.2,4.1c-0.5,1.1-0.5,2,0.1,2.4
			c0.9,0.5,1.6,0.1,2.3-0.4c0.7-0.5,1.3-0.9,2-1.4c1.3-1,1.8-3.1,1.1-4.5c-0.3-0.6-0.2-1.2,0.2-1.8c0.2,0.5,0.4,0.9,0.7,1.4
			c0.2-0.3,0.3-0.4,0.4-0.6c0.5-1.2,1.6-1.8,2.7-2.2c0.2-0.1,0.5,0.1,0.7,0.2c0.4,0.1,0.8,0.2,1.2,0.3c0.2,0.1,0.6,0.4,0.6,0.4
			c-0.3,0.6,0.3,0.8,0.6,1.1c0.1,0.1,0.2,0.2,0.3,0.2c2.1,1.2,3.1,3,2.8,5.5c-0.1,0.4,0.4,0.8,0.6,1.2c-0.1,0-0.4,0-0.6,0
			c0,0.3,0,0.5-0.1,0.7c0.3,0.2,0.9,0.5,0.8,0.6c-0.1,0.4-0.4,0.8-0.7,1.1c-0.4,0.3-0.9,0.6-1.4,0.9c-1.1-2.3-0.8-4.8-0.8-7.4
			c-0.8,0.5-1.4,1-2.1,1.5c-0.6,0.4-1.1,0.9-1.7,1.4c-1.1,0.8-1.1,0.8-0.7,2c0.4,0.2,0.6,0.3,0.9,0.4c0.2,0.1,0.5,0.1,0.7,0
			c0.8-0.1,1.4,0.3,1.5,0.9c0,0.2,0,0.4-0.1,0.5c-1.3,0.9-0.5,2.2-0.6,3.4c0,0.5,0.2,1.1,0.3,1.6c1.7-0.3,3-1.9,5-0.8
			c0.2-0.2,0.5-0.7,0.8-1c0.7-0.7,1.2-0.6,1.5,0.3c0.1,0.5,0.1,1,0.1,1.5c0,0.2-0.1,0.5-0.1,0.8c1.1-0.6,2.1-1.1,3-1.6
			c0.1,0.1,0.1,0.2,0.2,0.3c-0.9,0.8-1.8,1.6-2.8,2.5c-0.3,0.3-0.8,0.5-1,0.8c-0.4,0.5-0.8,1.1-0.8,1.7c-0.1,1.6,1.7,3.7,3.3,4.1
			c0.9-2.5,1.6-5.1,3.1-7.4c0.1,0,0.2,0.1,0.3,0.1c-0.5,2.1-1,4.2-1.5,6.4c0.2-0.1,0.4-0.3,0.6-0.4c1.7-1.1,3.4-2.1,5.1-3.1
			c0.3-0.1,0.9-0.1,1,0.1c0.2,0.3,0.3,0.8,0.2,1.2c-0.1,0.4-0.5,0.8-0.9,1.1c-1.2,0.9-2.5,1.8-3.8,2.7c-0.4,0.3-0.5,0.5-0.5,0.9
			c0,0.8-0.1,1.7-0.5,2.3c-0.4,0.7-0.7,1.3-1,2.1c-0.4,1-0.9,2-1.5,3.1c1.4-0.3,2.8-0.7,4.2-1c0.3-0.1,0.5-0.2,0.8-0.1
			s0.6,0.3,1,0.5c-0.2,0.3-0.4,0.7-0.7,0.8c-1.2,0.4-2.4,0.8-3.6,1c-2.6,0.5-4.4,2-5.4,4.4c0.1,0.4,0.3,0.8,0.5,1.2
			c1.5-0.9,3-1.9,4.5-2.8c1.3-0.8,2.7-1.6,4.1-2.4c0.2-0.1,0.5-0.3,0.5-0.5c0.4-1,1-1.6,2.1-1.8c1-0.1,1.6,0.5,1.9,1.3
			c0.3,0,0.6-0.1,0.9-0.1c1.1,0,1.9,1,1.4,2.1c-0.2,0.4-0.4,0.7-0.7,1c-4.3,4-7.4,9-10.6,13.8c-0.7,1.1-1.5,2.1-2.3,3.2
			c1.6-0.5,3.1-0.9,4.8-1.5c-1.8,2.9-7.4,7.1-10.3,6.2c-0.3,0.7-0.5,1.6-1.1,2c-0.5,0.4-1.5,0.5-2.2,0.5c-1.3,0-2.6-1.6-2.8-3.4
			c1.3,0.7,2.4,1.3,3.7,2c0.4-2.1,0.7-3.9,1-5.8c0,0,0,0-0.1-0.1c-1.4-0.8-2.4-0.2-3.4,0.9c-1.8,2-3.9,3.8-5.7,5.7
			c-1.4,1.5-2.7,3.2-4.1,4.9c-0.4,0.5-0.9,0.7-1.5,0.1c-2.3,5.1-5.1,9.8-7.9,14.5c-1.6,2.7-3.9,4.7-6.1,6.8
			c-0.1,0.1-0.1,0.1-0.2,0.2c-3.4,3.7-7.9,5-12.7,5.2c-0.3,0-0.7,0.3-1,0.6c-1.4,1.5-2.7,3.2-4.3,4.6c-3.5,3.2-7.4,5.6-12.2,6.4
			c-4.3,0.7-8.5,0.6-12.6-0.7c-3.9-1.3-7.5-3.3-10.1-6.7c-0.2-0.3-0.7-0.4-1-0.4c-1.6,0-3.2,0.2-4.8,0.2c-5.2,0.1-10.1-0.8-14.9-2.9
			c-0.3-0.2-0.9-0.1-1.2,0c-6,1.9-12.1,2.1-18.3,1.7c0.5-0.5,1.1-1,1.4-1.6c0.2-0.6-0.1-1.3-0.2-2.1c0.1,0.1,0.3,0.2,0.4,0.4
			c0.8,0.8,1.8,1.1,3,0.7c1.1-0.4,1.7-1.3,1.7-2.4c0-1.4,0-2.9-0.3-4.2c-0.6-2-1.1-4.2-2.8-5.7c-2-1.7-4.3-2.6-6.9-2
			c-0.6,0.1-1.2,0.5-1.7,0.9c-0.7,0.5-1.4,1.2-2.1,1.7c-3.8,3-5.4,6.9-4.9,11.7c0.1,0.7,0.4,1.4,0.6,2.2c-0.1,0-0.3,0.1-0.4,0.1
			c-5.1,0.4-10.2,0.2-15.3-0.4c-0.8-0.1-1.6,0-2.4,0.2c-3.9,0.9-7.8,2.1-11.7,2.8c-6,0.9-12,0.7-17.9-0.5c-3.7-0.7-7.3-2-10.7-3.6
			c-0.6-0.3-1.3-0.4-2-0.4c-4.4-0.2-8.7-0.7-12.8-2.3c-2.3-0.9-4.5-2.3-6.8-3.4c-0.4-0.2-0.9-0.4-1.3-0.3c-2.9,1.1-5.9-0.2-7.4-2.8
			c-0.5-0.8-0.8-1.7-1.2-2.5c-0.1-0.3-0.3-0.6-0.6-0.7c-1.3-0.5-2.1-1.4-2.7-2.5c-0.9-1.7-1.6-3.5-2.4-5.3c-0.1-0.3-0.2-0.6-0.4-1
			c-0.7,0.6-1.4,1.3-2.1,1.8c-0.7,0.5-1.6,0.8-2.4,1.2c-0.1,0-0.1-0.1-0.2-0.1c0.5-1.3,1-2.7,1.7-3.9c0.6-1.1,1.1-2.1,1-3.4
			c-0.1-1.4-0.8-1.9-2-1.2c-1.1,0.6-2.1,1.4-3,2.2c-1,0.7-2,1.5-3,2.3c-0.1,0.1-0.3,0.1-0.6,0c0.3-0.4,0.6-0.9,0.9-1.3
			c1.3-1.5,2.7-2.9,4.1-4.3c1-1,2.1-1.6,3.5-1.8c0-1.4,0-2.7,0-4.1c-0.8,0.1-1.3,0.4-1.7,1.1c-2.3,3.6-5.1,6.9-8.3,9.8
			c-0.6,0.5-1.1,1.1-1.7,1.6c-0.1,0.1-0.5,0.2-0.5,0.1c-0.1-0.2-0.3-0.5-0.2-0.7c0.4-0.9,0.8-1.9,1.4-2.8c1-1.7,2.2-3.3,3.2-5
			c0.1-0.1,0.1-0.3,0.1-0.6c-0.3,0.2-0.5,0.4-0.8,0.6c-1.5,1-2.9,2.1-4.4,3c-0.6,0.4-1.3,0.6-2,0.8c-1.1,0.2-1.9-0.4-1.5-1.5
			c0.5-1.6,1.2-3.1,2-4.5c0.7-1.3,1.7-2.5,2.5-3.7c-0.3-0.1-0.5-0.2-0.9-0.4c-0.5,0.9-0.9,1.8-1.4,2.6c-0.1,0.2-0.4,0.3-0.6,0.4
			c0-0.2,0-0.5,0-0.7s0.2-0.5,0.1-0.7c-0.6-2.7,0.5-5.2,1.4-7.6c0.3-0.8,0.2-1.2-0.4-1.7c-1.5-1.4-1.5-1.4-3.2-0.4
			c-2.9,1.8-5.9,3.6-8.8,5.5c-0.1,0.1-0.3,0.3-0.5,0.2c-0.4,0-0.8-0.1-1.2-0.2c0.2-0.4,0.2-0.9,0.5-1.1c0.9-0.7,1.9-1.3,2.9-1.8
			c2.6-1.4,4.7-3.4,6.8-5.6c-1-1-2-1.9-3-2.8c0,0,0-0.1,0.1-0.1c0.8,0.4,1.5,0.8,2.3,1.3c1.5,0.9,1.5,0.8,2.9-0.2
			c0.6-0.5,0.9-1,0.8-1.8c0-0.7-0.3-1.3-0.9-1.7C26.7,272.1,26.3,271.7,25.9,271.4L25.9,271.4z M113.5,243.2
			c-0.2,0.7,0.4,0.5,0.7,0.5c0.2,0,0.4-0.1,0.6-0.2c-0.2-0.3-0.4-0.5-0.6-0.8C113.8,242.9,113.7,243,113.5,243.2
			c0-0.5,0.5-1.1-0.5-1.4c-0.1,0.6-0.3,1.2-0.4,1.8c0.1,0.1,0.1,0.1,0.2,0.2C113,243.6,113.3,243.4,113.5,243.2z M39.6,277.9
			c0.6,0,1.2,0.9,1.8-0.1c-0.1-0.2-0.3-0.5-0.4-0.8C40.6,277.4,40.1,277.6,39.6,277.9c0.2-0.7,0.4-1.4,0.7-2.3
			c-0.3-0.2-0.7-0.6-1.2-0.9c-0.5,0.5-0.9,0.9-1.3,1.3C38.5,276.7,39,277.3,39.6,277.9z M266.6,275.6c0.3,0.1,0.7,0.1,0.9,0.3
			c0.6,0.9,1.3,0.6,2,0.2c0.1-0.1,0.3-0.1,0.5-0.1c0,0,0,0.1,0.1,0.1c-0.4,0.4-0.8,0.7-1.3,1.2c0.3,0.3,0.5,0.5,0.7,0.7
			c0.8-1.2,1.5-2.2,2.2-3.3c-1.2-0.4-2.3-0.8-3.3-1.2C267.6,274.2,267.1,274.9,266.6,275.6c-0.1,0.6-0.3,1.3-0.5,2.1
			c0.6-0.3,1.1-0.5,1.6-0.8C267.3,276.4,266.9,276,266.6,275.6z M267.2,236c-0.1,0.5-0.2,0.9-0.3,1.4c0.8,0.4,1.5,0.4,2.3-0.1
			c0.5-0.4,1.1-0.6,1.7-0.9c0.9-0.5,1.9-1,2.8-1.5c-1.6-2.3-2.1-2.4-4.5-1.6c-0.1,0-0.2,0.1-0.2,0.1c-1.9,0.8-1.6,0.5-1.8,2.4
			C267.2,235.9,267.2,236,267.2,236L267.2,236z M174.5,285.4c0.1-2.2-0.3-4.3-1.3-6.3c-1.6-3.3-3.9-5.5-7.7-5.8
			c-2.1-0.1-3.5,1-4.6,2.6c-3.5,5-5.9,10.3-5.5,16.5c0.1,1.6,0.4,3,1.2,4.4c2.1,3.5,5.7,5.3,9.7,4.6c2.3-0.4,3.9-1.9,5-3.8
			C173.5,293.8,174.4,289.7,174.5,285.4z M187.3,275.5c0.2,1.9,0.3,3.8,0.7,5.7c0.9,3.6,3.2,5.9,6.8,6.6c3.7,0.8,6.9-0.1,9.3-3.3
			c0.3-0.4,0.5-0.7,0.7-1.1c2-3.2,2.6-6.8,2.8-10.5c0.2-3.9-1.3-7.1-3.7-10c-1.9-2.3-4.4-3.2-7.3-2.8c-1,0.1-2,0.5-3,0.6
			c-1.4,0.1-2.5,0.5-3.2,1.6c-0.7,1.2-1.4,2.4-1.8,3.7C187.6,269.1,187.5,272.3,187.3,275.5z M155.6,236.9c-1.2-0.1-2.2,0.2-3.1,1
			c-1,0.9-1.7,2.1-2,3.4c-0.8,3.1-1,6.3-0.3,9.3c1.3,5.4,4.9,9.1,9.2,12.2c1.5,1,3.4,1.5,5.1,0.5c1.5-0.9,2.9-2.1,4.2-3.4
			c1.4-1.4,2.1-3.2,1.8-5.4c-0.1-0.5,0-1.1-0.1-1.7c-0.1-4.7-1.5-8.7-5.1-12.1C162.4,238.3,159.3,237,155.6,236.9z M159.4,202.5
			c-0.1,0-0.2,0-0.3,0c0.3,1.5,0.5,3.1,1,4.6c0.6,1.6,1.4,3.2,2.2,4.7c1.6,3.2,4,5.3,7.6,5.7c1.8,0.2,3.7,0.4,5.3-1
			c0.4-0.3,0.8-0.6,1.3-0.8c1.5-0.6,2.5-1.7,2.7-3.4c0.2-3.4,0-6.9-1-10.2c-0.9-2.8-2.5-5.2-4.2-7.5c-1.5-2-3.6-3.1-6.3-2.8
			c-0.4,0.1-0.8,0-1.1,0c-2.3-0.1-4,0.9-5,2.8C160.1,197.2,159,199.7,159.4,202.5z M152.9,218c0-3.5,0-4.2-0.8-5.5
			c-1.6-2.7-3.6-5.3-5.9-7.4c-1.5-1.4-3.3-2.4-5.3-2.6c-3-0.4-4.9,1.6-6.6,3.7c-2,2.5-2,5.5-2.1,8.5c-0.1,2.2,0.1,4.2,1.4,6.1
			c0.8,1.1,1.6,2.3,2.4,3.4c0.9,1.2,2,2.1,3.4,2.7c2.6,1.2,5.3,1.1,8,0.9c2-0.2,3.4-1.4,4.3-3.2C152.7,222.4,153.1,220.1,152.9,218z
			 M175.9,234.1c-0.1,0-0.1,0-0.2,0c0.4,2.8,0.6,5.6,1.1,8.4c0.3,1.3,0.8,2.8,1.6,3.8c1.6,1.8,3.7,3.2,5.9,4.2
			c0.4,0.2,1,0.2,1.4,0.1c3.4-0.8,6.1-2.7,8.5-5.2c0.3-0.3,0.4-0.9,0.5-1.4c0.1-0.3,0.1-0.7,0.2-1c0.9-1.3,1.2-2.7,0.8-4.2
			s-1-3-1.5-4.4c-0.7-1.7-1.3-3.4-2.3-4.8c-0.8-1.3-2-2.5-3.3-3.3c-2.8-1.8-5.8-1.4-8.6,0C177.1,227.8,175.6,230.5,175.9,234.1z
			 M195.6,321.5c2.6,0.5,5.2-1.7,5.2-4.3c0-4.5-1.6-8.3-4.9-11.3c-2.9-2.7-8.4-2.7-11.4-0.2c-1.6,1.4-2.9,3-4,4.9
			c-1.4,2.5-1.1,5.2-0.7,7.8c0.2,1.4,1.2,2.3,2.6,2.5c1.1,0.1,2.2-0.1,3.3-0.1c0.5,0,0.9-0.1,1.3,0c1.5,0.2,3,0.3,4.3-0.7
			c0.2-0.2,0.4-0.5,0.4-0.8c-0.1-0.8-0.4-1.6-0.6-2.4c-0.1-0.2-0.4-0.5-0.5-0.4c-0.7,0.1-1.4,0.1-2.1,0.3c-0.6,0.2-1.1,0.2-1.6-0.2
			c-0.2-0.2-0.2-0.4-0.3-0.6c-0.1,0.1-0.1,0.3-0.2,0.4c-0.4,0.1-0.9,0.4-1.2,0.3c-0.6-0.4-0.2-0.9,0.1-1.3c0.6-1,1.2-1.9,1.8-2.8
			c0.2-0.3,0.6-0.6,1-0.7c2.1-0.9,4.5-0.2,5.6,1.8C195,316,195.6,318.7,195.6,321.5z M137.2,172.5c0.1,0,0.2,0,0.3,0
			c-0.4,2.5,0.2,4.7,1.5,6.8c0.3,0.5,0.5,1.2,0.8,1.7c1.3,2.5,3.2,4.5,5.8,5.7c3.5,1.6,6.5,0.7,8.4-2.6c1.4-2.4,2.1-4.9,2.1-7.6
			c0-2.6-0.9-4.9-2.3-7c-1.9-2.9-5-4.4-7.9-6c-0.2-0.1-0.4-0.1-0.7-0.1c-2.6-0.1-4.7,1-6.7,2.6c-0.3,0.2-0.5,0.7-0.6,1
			C137.6,168.8,137.4,170.7,137.2,172.5z M128.3,182.7c0.4-2.6-0.6-4.7-2-6.7c-0.8-1.1-1.7-2.1-2.4-3.3c-0.9-1.6-2.2-2.5-3.9-2.9
			c-1.8-0.4-3.1,1-4.7,1.4c0,0,0,0-0.1,0.1c-1.3,1.8-2.5,3.6-2.8,5.8s-0.2,4.4,0.8,6.6c1.1,2.5,2,5,4.3,6.8c2,1.6,4,2,6.3,1.6
			c0.8-0.2,1.7-0.7,2.1-1.3C127.5,188.3,128.7,185.7,128.3,182.7z M131.8,139.6c0,0.7,0,1.5,0,2.2c0.2,3.2,2.2,5.9,5.2,6.8
			c2,0.6,3.7,0.3,5.3-1.1c1.3-1.1,2-2.5,2.2-4.1c0.3-3.1,0.5-6.3,0.7-9.5c0.1-1.4-0.4-2.6-1.4-3.6c-0.6-0.6-1.3-1.2-2-1.8
			c-2.6-2.5-6.4-1.8-8,1.5C132.4,132.9,131.7,136.2,131.8,139.6z M147.5,86.3c-0.1,1.2,0.1,2.6,0.9,4c1.6,2.5,4.8,3.1,7.1,1.1
			c0.2-0.2,0.4-0.3,0.7-0.4c2.4-1,4.4-2.5,5-5.2c0.5-1.8,1.1-3.5,1.7-5.3c0.6-1.7,0-3.7-1.4-4.8c-1.2-1-2.7-1.3-4.2-1.4
			c-1.6-0.1-3.2-0.1-4.6,0.9C149.2,77.9,147.4,81.5,147.5,86.3z M134.6,110.1c0,0.4,0,0.8,0,1.2c0,2.7,1.8,4.8,4.5,5.2
			c0.7,0.1,1.4,0.1,2.1,0.1c1.8,0,3.2-0.9,4.1-2.4c0.2-0.3,0.3-0.7,0.5-0.9c1.7-2,2.4-4.3,2.3-6.8c0-1.2-0.2-2.4-0.4-3.6
			c-0.4-2-1.6-3.5-3.5-4.2c-3-1-4.8-0.3-6.8,2.3C135.3,103.6,134.4,106.7,134.6,110.1z M107.1,139.3c-0.2,2.3,0,4.5,1,6.6
			c0.2,0.4,0.6,0.8,1,0.8c2.9,0.6,6.2-1.2,7.1-4c0.9-2.6,1.9-5.2,1.9-8.1c0-1.8-0.1-3.5-1-5.1c-1.2-2.2-3-3.1-5.4-2.6
			c-0.3,0.1-0.6,0.2-0.7,0.4c-0.9,1.3-1.8,2.6-2.5,4C107.2,133.8,106.8,136.4,107.1,139.3z M228.8,190.6c0.1-3.1-1.6-4.9-4.7-4.8
			c-0.4,0-0.8,0-1.1-0.1c-1.2-0.6-2.2-0.4-3.3,0.3c-3.2,1.9-5.5,7.1-4.8,10.7c0.2,1.3,1,2.1,2.1,2.6c2.6,1.3,6.6,0.7,8.6-1.4
			C227.6,195.8,228.8,193.5,228.8,190.6z M236.3,215.3c0-0.6,0-1.1,0-1.7c0-2-1-3.4-2.7-4.3c-0.3-0.2-0.7-0.3-1-0.5
			c-1.9-1.1-4-0.7-5.2,1.1c-2.3,3.6-3.2,7.5-2.7,11.7c0.2,1.3,0.9,2.2,2.2,2.5c0.8,0.2,1.6,0.4,2.4,0.6c1.9,0.5,3.4,0,4.5-1.6
			C235.5,220.9,236.6,218.3,236.3,215.3z M234,199.6c0,0.5,0,1,0,1.6c0.1,1.2,0.8,2.2,2,2.5c2,0.5,4,0.3,5.5-1.3
			c1.2-1.3,2.3-2.8,3.3-4.4c1.1-1.7,1.4-3.5,1.3-5.5c-0.2-2.9-3.6-5.1-6.2-3.8c-0.8,0.4-1.6,1-2.2,1.7
			C235.2,192.9,233.9,196,234,199.6z M95.3,244.5c0,0.5,0,0.8,0,1.1c0,2.4,1.3,3.6,3.7,3.7c1.4,0.1,2.4-0.5,3.5-1.2
			c1.7-1.1,2.6-2.5,3.2-4.3c0.8-2.5,0.8-5.1,0.3-7.7c-0.3-1.7-1.7-3.1-3.2-3.4c-1.6-0.3-2.8,0.3-3.7,2.1c-1,1.8-1.9,3.7-2.8,5.6
			C95.5,241.8,95.1,243.2,95.3,244.5z M215.9,211c0-1,0-1.8,0-2.6c-0.1-1.5-1.2-2.8-2.7-2.9c-1.1-0.1-2.3-0.1-3.4,0
			c-1.8,0.2-4.4,2.5-4.6,4.3c-0.3,2.5-0.5,5-0.6,7.5c-0.1,1.4,0.6,2.4,1.9,2.8c1.1,0.3,2.3,0.5,3.5,0.5c2.2,0.1,3.6-0.9,4.4-3
			c0.2-0.5,0.2-1.2,0.5-1.7C215.8,214.3,216,212.5,215.9,211z M75.5,288.6c0,0.6,0,1.1,0,1.7c0.2,1.8,1.1,3.1,2.8,3.7
			c1.7,0.5,3.4,0.6,4.7-0.9c2.7-2.8,3.9-6.2,3.8-10.1c-0.1-1.9-1.2-3.1-3-3.5c-0.3-0.1-0.6-0.1-0.7-0.3c-0.7-1-1.7-1-2.6-1
			c-1.7,0.2-2.6,1.4-3.3,2.8C76,283.4,75.5,286,75.5,288.6z M238.7,257.6c0.1,0,0.1,0,0.2,0c0,0.2,0,0.3,0,0.5
			c-0.1,4.5,2.9,6.3,7,5.8c0.9-0.1,1.8-0.7,2.5-1.3c1.7-1.6,2.2-3.7,2.3-5.9c0.1-2.8-1.3-4.6-4.1-5c-1-0.2-2,0-3-0.1
			c-2.1-0.3-3.4,0.4-4.1,2.5C239,255.2,238.9,256.4,238.7,257.6z M68.8,247.1c-0.7,0.2-1.6,0.3-2.4,0.7c-2.9,1.3-6.4,6.3-5.6,10.7
			c0.2,1.2,0.8,1.9,1.8,2.3c1.6,0.6,3.2,0.5,4.6-0.3c2.3-1.3,4.1-3.1,5.5-5.4c0.8-1.3,1-2.7,1-4.2s-1-2.9-2.5-3.4
			C70.5,247.4,69.8,247.3,68.8,247.1z M218.9,237.2C218.8,237.2,218.8,237.2,218.9,237.2c-0.1-0.6-0.1-1.2-0.1-1.8
			c0-1.8-0.7-3.3-2.2-4.3c-1.1-0.7-2.3-1.4-3.5-2c-2.3-1-4.5,0.1-4.9,2.6c-0.3,1.7-0.3,3.5-0.2,5.3c0,0.8,0.2,1.8,0.7,2.4
			c1.5,2,3.4,3.4,5.9,4c2.2,0.5,3.8-0.8,4.1-3C218.8,239.3,218.8,238.2,218.9,237.2z M73.9,239.8c0,0.4,0,0.8,0,1.2
			c0,1.4,0.7,2.4,2,2.9c2.3,0.8,4.4,0.6,6-1.3c0.3-0.3,0.6-0.6,0.9-1c2-2.6,3.3-5.5,3.1-8.8c0-1.2-0.5-2.1-1.6-2.7
			c-1.7-0.9-5-0.5-6.3,0.9C75.4,233.4,73.8,236.2,73.9,239.8z M176,55.4c-1.9-0.2-3.2,0.9-4.3,2.8c-1.1,1.9-1.7,3.8-1.9,5.9
			c-0.1,1.2,0,2.2,0.5,3.2c0.7,1.3,1.8,2,3.3,2.1c1.4,0.1,2.5-0.5,3.1-1.8c0.1-0.3,0.4-0.5,0.7-0.7c2.1-1.6,3.4-3.8,4.2-6.3
			c0.1-0.3,0.1-0.8,0-1.1C181.3,57.4,178.6,55.4,176,55.4z M82.5,217.6c0.1,0.8,0.1,1.5,0.2,2.3c0.1,1,0.7,1.7,1.6,2.2
			c1.7,0.7,4.4,1,5.7-1.6c0.9-1.9,1.8-3.8,2.3-5.8c0.7-2.6,0.8-4.9-3-7.1c-0.1-0.1-0.2-0.2-0.3-0.3c-0.5-0.2-1-0.5-1.5-0.6
			c-1.3-0.1-2.2,0.7-2.8,1.8C83.1,211.3,82.5,214.4,82.5,217.6z M113.5,108.4c0,0.4,0,0.8,0,1.1c-0.1,0.9,0.2,1.5,1.1,1.8
			c0.2,0.1,0.3,0.2,0.4,0.3c2.4,1.4,5.1,0.9,6.7-1.3c0.7-1,1-2.3,1.6-3.5c1.4-2.9,1.9-5.7,0.7-8.8c-0.4-0.9-1.9-1.7-2.8-1.2
			c-0.9,0.5-1.8,0.9-2.7,1.4c-0.9,0.5-1.9,1-2.5,1.8C114.1,102.5,113.4,105.3,113.5,108.4z M229.2,175.8c0,0.9,0,2.2,1.1,3.1
			c1.7,1.5,5.1,1.3,6.7-0.3c2.2-2.3,3.2-4.9,3-8.1c-0.1-1.5-0.8-2.5-2.1-3.2c-2.6-1.3-5.6-0.3-7.2,2.3
			C229.6,171.5,229.3,173.4,229.2,175.8z M51.4,283.6c0.1,0.7,0.1,1.4,0.1,2c0.2,1.7,1.2,2.7,2.9,2.8c0.7,0,1.5-0.2,2.2-0.2
			c1.5,0.1,2.4-0.6,3-1.8c1.4-2.8,1.9-5.8,1.8-8.9c-0.1-2-1.2-3-3.2-3c-0.2,0-0.5,0-0.7,0c-2.2-0.3-4.3,0.8-5.1,2.9
			C51.6,279.4,51.4,281.6,51.4,283.6z M84.3,313.6c0-0.6,0-1.2-0.1-1.8c-0.3-1.5-0.6-3.1-0.9-4.6c-0.3-1.6-1.3-2.8-2.9-2.8
			c-1.4,0-2.8,0.1-4.1,0.4c-1.2,0.3-1.8,1.2-1.8,2.4c-0.1,0.9-0.3,1.9-0.3,2.8c-0.1,1.6-0.4,3.1-0.2,4.7c0.2,3.1,3.6,4.5,6.1,2.7
			c0.2-0.1,0.6-0.1,0.9,0c1.6,0.6,3-0.2,3.3-1.9C84.3,314.9,84.3,314.3,84.3,313.6z M230.4,263.1c0.1-3.4-1.3-5.6-3.9-7.1
			c-2.3-1.3-4.7-0.1-5.2,2.4c-0.5,2.3-0.8,4.7-0.3,7.1c0.4,2.3,1.7,4.1,4,4.8c1.7,0.5,3.1,0,3.9-1.6
			C229.8,266.9,230.5,265,230.4,263.1z M230.1,238.4c0.1,1.3,0.1,2.3,0.3,3.2c0.4,2.1,2.1,3.6,4.4,3.8c2,0.2,3.6-0.6,4.5-2.7
			c0.4-1,0.8-2.1,0.9-3.1c0.4-2.6,0.1-5-2.5-6.5c-0.8-0.5-1.7-0.9-2.6-1.2c-2.2-0.7-3.8,0-4.4,2.2
			C230.3,235.6,230.2,237.2,230.1,238.4z M56.1,309.1c0.4,0.1,0.8,0.1,1.2,0.2c1.1,0.2,1.7-0.3,1.9-1.3c0.4-1.9,0.2-3.7-0.4-5.5
			c-0.4-1.2-1-2.5-1.7-3.6c-0.9-1.3-2.8-1.7-4.3-1.1c-1.3,0.5-1.9,1.5-2,3.3c0,0.3-0.1,0.7-0.1,1c-0.1,1.5-0.3,3.1-0.3,4.6
			s0.8,2.8,2.1,3.6C53.9,311.2,55.2,310.8,56.1,309.1z M85.1,266.2c0.1,0,0.2,0,0.2,0.1c0,1.9,0.3,2.6,1.4,3.1
			c1.9,1,4.8,0.7,6.2-0.9c2.3-2.4,3.8-5.2,3.6-8.7c-0.1-1.6-1-2.9-2.6-3.3c-2.7-0.7-4.7,0.1-6,2.6c-0.7,1.2-1.3,2.5-1.8,3.8
			C85.7,263.9,85.4,265.1,85.1,266.2z M246,281.6c-0.1-2.9-0.9-5-3-6.3c-1.9-1.3-4.2-0.6-5.2,1.4c-0.1,0.2-0.2,0.3-0.4,0.4
			c-1.3,0.8-1.7,1.7-1.3,3.1c0.7,2.2,1.9,4.1,3.7,5.6c1.9,1.7,4.6,1,5.4-1.3C245.7,283.5,245.8,282.3,246,281.6z M248.9,179.3
			c0,0.1,0,0.1,0,0.2c0.8-0.2,1.8-0.1,2.5-0.6c2-1.3,3.4-3.1,3.2-5.7c-0.1-1.1-0.3-2.3-0.6-3.4c-0.1-0.4-0.3-0.9-0.5-1.3
			c-1.3-2.3-3.7-2.5-5.4-0.5c-0.8,1-1.5,2.2-2.3,3.3c-1,1.5-1.4,3.1-1.3,4.9c0.1,1.8,1.2,3,3,3.2
			C248.1,179.3,248.5,179.3,248.9,179.3z M100.6,217.6L100.6,217.6c0.1,0.9,0.1,1.8,0.1,2.7c0,1.6,1,2.9,2.4,3.3
			c1.8,0.5,3-0.1,3.9-1.6c1.8-2.9,2-6.1,1.7-9.4c-0.2-1.9-2.3-3.7-4.1-3.7c-1.8,0-3.2,1.3-3.5,3.5
			C100.8,214.1,100.7,215.9,100.6,217.6z M254.9,276.6C254.9,276.6,254.8,276.7,254.9,276.6c0.1,1.1,0.1,2.2,0.4,3.3
			c0.6,1.8,2,2.6,3.9,2.7c1.5,0.1,2.8-0.7,3.5-2.4c0.3-0.6,0.5-1.3,0.7-2c0.3-1.4,0.6-2.8,0.7-4.3c0.1-0.7-0.1-1.4-0.3-2.1
			c-0.5-1.7-5.4-2.7-6.5-1.3c-0.9,1.2-1.6,2.4-2.2,3.8C254.8,275,255,275.9,254.9,276.6z M247.8,152.4c0,0.1,0,0.3,0,0.4
			c-0.1,4.2,3.2,5.2,6.5,4.5c0.4-0.1,0.7-0.4,1-0.7c1.3-1.4,1.9-5,0.9-6.7c-1.1-2-2.5-3.5-5.1-3.3c-0.8,0.1-1.3,0.3-1.7,0.9
			C248.3,149,247.9,150.6,247.8,152.4z M137.3,75.1c-2.3,2-3.1,4.8-3.8,7.6c0,0.2,0.3,0.6,0.4,0.6c1,0,2.2,0.2,3.1-0.2
			c1.3-0.6,2.5-1.6,3.6-2.6c2.1-2,3.1-4.6,4.2-7.2c0.2-0.4,0.1-0.8,0.1-1.2c0-0.2-0.2-0.4-0.3-0.4c-2-0.9-4.8,0-6,1.9
			c0.3,0,0.7-0.2,1-0.1c0.4,0,1.1,0.1,1.2,0.4c0.2,0.5,0.2,1.2-0.1,1.6c-0.8,1.1-1.6,2.2-2.5,3.2c-0.4,0.5-1.1,0.9-1.8,0.4
			s-0.7-1.2-0.3-1.9C136.5,76.4,137,75.7,137.3,75.1z M242.5,143.3c1.3,0,2.4,0,3.2-0.8c1.1-1,1.8-3.7,1.3-5.1
			c-0.1-0.2-0.2-0.5-0.4-0.7c-1.2-0.8-2.2-1.9-3.5-2.3c-2.2-0.7-4-0.1-5.1,1.6c-0.9,1.5-1.2,3.7,0.4,5.3
			C239.8,142.5,241,143.3,242.5,143.3z M165.2,54.2c-3-1.3-5.8-0.4-7.5,2.4c0.7-0.3,1.7-0.7,2.7-1.1c0.6-0.2,0.9,0.1,0.9,0.8
			c0.1,1.2-0.4,2.1-1.2,3c-0.7,0.8-1.5,1.1-2.2,0.8c-0.9-0.4-1.2-1.1-1.1-2.1c0,0-0.1-0.1-0.1-0.2c-1.1,1.3-1.4,2.8-1.4,4.4
			c0,1,0.3,1.4,1.3,1.4c1-0.1,2-0.5,3-0.8c0.3-0.1,0.6-0.3,0.9-0.4c1.2,0,1.9-0.7,2.4-1.6c0.6-1.1,1.3-2.2,1.9-3.4
			c0.3-0.5,0.4-1.2,0.5-1.8C165.2,55.3,165.2,54.8,165.2,54.2z M86.2,195.3c0.3,1.4,0.5,2.9,0.9,4.3c0.3,1,1.2,1.6,2.3,1.3
			c1.5-0.4,2.9-1.2,3.6-2.5c1.1-2.2,1.4-4.5-0.3-6.8c-1.2-1.6-4.3-1.4-5.4,0.3C86.4,192.9,86.2,194.1,86.2,195.3z M74.1,160.5
			c0,2.3,0.8,4.1,3,5c0.3,0.1,0.5,0.4,0.7,0.6c0.8,0.9,3.5,1.1,4.4,0.4c0.2-0.1,0.4-0.4,0.4-0.6c0-0.6,0.1-1.4-0.1-1.8
			c-1.4-2.5-2.5-5.3-5.2-6.8c-1-0.5-2.1-0.4-2.4,0.4C74.5,158.7,74.3,159.6,74.1,160.5z M235,156.1c0,0.4,0,0.8,0,1.1
			c0.1,1.5,1.5,2.9,3.2,3.2c1.8,0.3,3-0.4,3.5-2.1c0.3-1.1,0.5-2.3,0.6-3.5c0.1-1.5-1-2.8-2.3-3.3c-1.6-0.6-2.7-0.3-3.9,1
			C235.1,153.6,235,154.8,235,156.1z M90.9,178.4c0.2-2-0.8-3.3-2.3-4.3c-0.4-0.3-0.9-0.6-1.4-0.8c-1.6-0.8-3.9,0.3-4.2,2.1
			c-0.6,2.9,1.2,5.8,4,6.6c2.1,0.6,3.5-0.3,3.8-2.5C90.9,179.1,90.9,178.8,90.9,178.4z M43.9,251c-0.4,0.8-0.9,1.6-1.3,2.4
			c-0.9,1.6-0.3,3.3,1.3,4.1c0.4,0.2,0.8,0.1,0.6-0.3c-0.4-0.8,0.1-1.3,0.5-1.8c0.5-0.8,1.3-1.4,2.3-1.1c1,0.2,1.2,1,1.2,1.9
			c0.5,0.2,0.8,0.4,1.4,0.6c0.9-0.8,1.7-1.6,2.6-2.4c0.1-0.1,0.3-0.3,0.5-0.3c1.4-0.1,1.5-1.3,2.1-2.2c-0.3,0-0.5,0-0.6-0.1
			c-1.2-0.3-2-0.1-2.5,1.3c-0.2,0.8-1,0.8-1.5,0c-0.3-0.4-0.5-0.9-0.9-1.1c-1.3-0.5-2.6-0.8-4-1.3C44.9,251.5,44.9,251.5,43.9,251z
			 M188.1,36.9c-2.1,0-2.3,0-2.9,2c-0.4,1.6-0.4,3.3-0.6,5c0,0.2,0.2,0.5,0.3,0.7c1,0.7,2,1.4,3,2c0.2,0.1,0.5,0,0.7-0.1
			c0.5-0.5,1-1.1,1.5-1.5c1.2-0.8,1.7-1.9,1.5-3.3c0-0.2,0-0.3,0-0.5C192,38.6,190.5,36.9,188.1,36.9z M73.5,149.1
			c0.1-2.3-1.3-3.9-2.8-5.3c-0.8-0.7-1.8-0.8-2.8-0.2c-0.8,0.5-1.7,1.2-1.5,2.3c0.3,2,0.9,3.8,2.4,5.3c0.9,0.9,2.1,1.4,3.3,0.9
			C73.4,151.6,73.5,150.4,73.5,149.1C73.5,149.2,73.5,149.2,73.5,149.1z M226.1,136.7c2.3,0,3.1-0.5,3.4-1.7
			c0.5-2.1-0.5-3.4-2.7-3.3c-0.9,0-1.8,0-2.7-0.3c-1-0.3-2.2,0.3-2.5,1.2c-0.4,1-0.1,2.4,0.8,2.8
			C223.7,135.9,225.2,136.4,226.1,136.7z M170.5,39c1.1-1.2,1.8-1.3,3.1-0.4c1.1,0.8,1.3,2,0.5,3.3c-0.4,0.8-1,1.3-2,1.3
			c-0.9-0.1-1.4-0.6-1.7-1.4c0-0.1-0.1-0.1-0.2-0.1c-0.1,1.1-0.1,2,0.6,2.9c0.9,1.3,2.3,1.6,3.5,0.5c0.6-0.5,1-1.2,1.5-1.8
			c1-1.4,1-2.9,0.7-4.5c-0.1-0.6-0.3-1.2-0.9-1.5c-0.7-0.3-1.4-0.6-2.1-0.9c-0.7-0.2-1.2,0-1.6,0.6C171.5,37.7,171,38.3,170.5,39z
			 M230.5,144.9c1.5,0,2.6-0.2,3.1-1.4c0.6-1.4,1-2.9,0.1-4.3c-0.2-0.4-0.7-0.7-1.2-0.8c-1.6-0.6-3.2,0-4.1,1.5
			c-0.7,1.2-0.8,2.6-0.2,3.8C228.7,144.8,229.7,144.9,230.5,144.9z M103.9,193.6c-0.6-1-1.1-1.9-1.6-2.8c-0.4-0.8-1.1-0.6-1.5-0.3
			s-0.9,1.1-0.8,1.5c0.9,2.6,1.1,5.2,1,7.9c0,0.2,0.3,0.6,0.5,0.6c1.1,0.4,1.8,0.1,2.4-0.9c0.8-1.2,1-2.5,0.7-4.1
			c-0.2,0.5-0.3,1-0.6,1.3c-0.2,0.2-0.8,0.4-0.9,0.3c-0.8-0.6-0.8-1.5-0.7-2.4C102.4,194.1,102.7,193.5,103.9,193.6z M61.3,132.6
			L61.3,132.6c0.1,0.2,0.1,0.4,0.1,0.5c0,1.5,0.6,2.3,1.8,2.6c1.4,0.3,2.7-0.2,3.3-1.5c0.8-1.6,0.2-3.2-1.5-3.9
			c-0.2-0.1-0.3-0.2-0.4-0.3c-1.1-1-2.5-0.7-2.9,0.8C61.4,131.4,61.4,132,61.3,132.6z M36.9,291c0-0.1-0.1-0.2-0.1-0.4
			c-0.4,0-0.8-0.1-1.2-0.1c-0.3,0-0.6-0.1-1-0.1c-0.2,0-0.3-0.1-0.5,0c-1.3,0.6-2.6,1.1-3.4,2.4c-1,1.5-2,3-3,4.6
			c-0.1,0.2-0.2,0.4-0.3,0.8C31.2,296.2,33.9,293.4,36.9,291z M115.6,249c0,0,0.2,0.1,0.2,0.3c0,1.8,0.4,3.6-0.5,5.3
			c-0.1,0.3,0,0.7,0,1.1c0.3-0.2,0.6-0.4,0.9-0.6c0.1-0.1,0.2-0.4,0.3-0.5c0.9-1.9,1.6-4,1.2-6.1s0.4-3.8,1.5-5.4
			c0.1-0.2,0-0.6,0-0.8c-0.3,0-0.6,0-0.9,0.1c-0.1,0-0.3,0.1-0.4,0.2c-0.1-0.1-0.1-0.1-0.2-0.2c0.2-0.1,0.4-0.2,0.8-0.4
			c-0.6-0.2-0.9-0.3-1.3-0.4c-0.2,1.2-0.4,2.4-0.7,3.5c-0.1,0.3-0.2,0.7-0.4,0.8c-0.7,0.4-0.7,1-0.6,1.7
			C115.6,247.9,115.6,248.4,115.6,249z M119.1,239.4c0.1-1.6,0.3-3.2,0.4-4.7c0.2-2.4,0.3-4.9,0.4-7.3c0-0.7-0.2-1.4-0.3-2
			c-0.1,0-0.1,0-0.2,0c-0.1,0.5-0.2,1-0.3,1.4c-0.6,3-1.4,5.9-1.3,9c0,0.3,0,0.8-0.3,1c-0.9,0.7-0.9,1.6-1,2.6
			C117.4,239.4,118.2,239.4,119.1,239.4z M78.4,144.7c-0.6-1-1.2-1.3-1.9-1c-0.7,0.3-1,1-0.9,2c0,0.3,0.1,0.6,0.2,0.9
			c0.4,1.2,0.8,2.4,1.4,3.6c0.3,0.6,0.7,1.2,1.2,1.6c0.2,0.2,0.8-0.3,1.2-0.2c0.9,0.2,0.9-0.5,1-1c0.5-1.5-0.3-2.8-1-4
			c0,0.5,0.1,0.9,0.1,1.4c0,0.2-0.1,0.5-0.3,0.7c-0.1,0.1-0.4,0-0.6-0.1C77.4,147.5,77.2,146.1,78.4,144.7z M280.6,261.9
			c0.3-0.4,0.4-0.7,0.6-0.9c-0.9-0.5-1.7-1.1-2.5-1.5c-0.5-0.3-1-0.3-1.2,0.3c-0.8,2.2-2.3,4-3.6,5.9c-0.4,0.6-0.9,1.2-1.4,2
			c1-0.4,1.8-0.6,2.5-0.9c0.5-0.3,1.1-0.6,1.5-1.1c1-1.2,2-2.5,3-3.7C279.6,261.5,280.1,261.2,280.6,261.9z M68.2,119.3
			c-0.2-0.5-0.5-1-0.7-1.5c-0.2-0.7-0.8-0.9-1.4-0.9c-0.7,0-1.2,0.3-1.5,0.9c-0.3,0.8-0.6,1.7-0.7,2.6c-0.1,1,0.4,1.5,1.4,1.6
			C66.8,122.1,68,121,68.2,119.3z M73.6,117.8c-0.1,0-0.2,0-0.3,0c-1.1-0.1-1.7,0.5-1.9,1.8c-0.3,1.5,0.2,2.6,1.1,2.9
			c0.2,0.1,0.4,0.1,0.6,0.1c1,0,1.4-0.8,1.9-1.3c0.7-0.7,0.7-1.6,0.4-2.4C75.1,117.9,74.4,117.6,73.6,117.8z M32.5,282.5
			c0.6,0.8,1.2,1.4,1.8,2.2c1.3-1.5,2.6-2.9,3.8-4.3c-0.7-0.5-1.7-1.1-2.7-1.8C34.4,279.8,33.4,281.1,32.5,282.5z M75.8,135.7
			c0-2.2,0-2.2-2.1-2.7c-0.9-0.2-1.3,0-1.4,0.9c-0.1,0.8-0.2,1.7-0.1,2.5c0.1,1.3,1.2,2.1,2.5,2.1c0.7,0,1.1-0.3,1.1-1.1
			C75.8,136.8,75.8,136.3,75.8,135.7z M127.7,243.7c0.6-0.8,1.1-1.5,1.7-2.1c1.3-1.4,0.6-2.9,0.5-4.5c-0.8,0.4-1.5,0.7-2.2,1.1
			c-0.2,0.1-0.3,0.3-0.4,0.5c-0.2,0.3-0.4,0.7-0.6,1c-0.3,0.3-0.6,0.6-1,0.8c0,0.1,0,0.2,0,0.3c0.5,0,1,0.1,1.6,0.1
			C127.5,241.9,127.6,242.7,127.7,243.7z M263.4,286.8c0.5-1,1.7-1.5,1.5-2.8c0-0.1,0.1-0.3,0.2-0.4c1.6-1.1,2.3-2.9,3.4-4.4
			c0.7-0.9,0.6-1-0.3-1.7c-0.7,0.5-1.5,1.1-2.2,1.6c-0.2,0.2-0.4,0.4-0.5,0.6C264.8,282,264.1,284.4,263.4,286.8z M122.8,238.9
			c-0.8-1.2-0.2-2.3,0.3-3.4c0.6-1.4,1.2-2.9,1.6-4.4c0.3-1,0.3-2.1,0.5-3.2c-0.3-0.2-0.6-0.4-1.1-0.7c-0.3,0.7-0.6,1.3-0.7,1.9
			c-0.5,3.1-1,6.2-1.5,9.4c-0.1,0.3-0.1,0.7-0.3,1.2C122,239.3,122.3,239.2,122.8,238.9z M124.6,225.8c-1.6-2.3-2.6-4.7-4.6-6.5
			c-0.6,0.7-1,1.2-0.5,2.1c0.2,0.4,0.1,0.9,0.1,1.4s-0.1,0.8,0.6,0.7c0.4-0.1,0.8,0.1,1.1,0.2C122.3,224.3,123.3,225,124.6,225.8z
			 M131.3,245.3c-0.9,0.2-1.6,0.3-2.3,0.5c-0.7,1,0.5,1.9,0.3,2.9c1,0.4,0.8,1.3,0.9,2.1c0,0.3,0.5,0.5,0.8,0.8
			c0.2-0.2,0.4-0.4,0.5-0.7c0.1-0.3,0-0.7,0-1c0-1-0.1-2-0.2-3C131.3,246.3,131.3,245.8,131.3,245.3z M57.9,230.5
			c-0.1,0.1-0.1,0.1-0.2,0.2c0.2,0.2,0.4,0.3,0.6,0.5c1.7,1.2,2.9,2.7,2.4,5c-0.2,0.8-0.4,1.6-0.6,2.4c-0.2,1-0.3,2-0.5,3.1
			c0.2-0.2,0.5-0.3,0.6-0.6c0.4-1.2,0.8-2.4,1-3.6c0.3-1.8,0.4-3.6,0.6-5.2C60.4,231.6,59.2,231,57.9,230.5z M123.5,250.3
			c0.4-1.5,0.9-3,1.2-4.5c0.1-0.2,0-0.6-0.2-0.7c-0.6-0.4-1.3-0.7-1.9-1.1c-0.1,0-0.2,0.1-0.3,0.1c0,1.7,0,3.4,0,5.1
			C122.4,249.7,122.5,250.2,123.5,250.3z M193.2,196.9l0.1,0.1c1-0.5,2-1.1,3.1-1.5c1-0.4,2.1-0.9,3.2,0c0.2-0.6,0.3-1.1,0.4-1.4
			c-1.3-0.3-2.5-0.5-3.7-0.7c-0.2,0-0.4,0-0.5,0.1C194.9,194.6,194,195.8,193.2,196.9z M270,261.2c1.2-1.1,2.5-2.2,3.7-3.3
			c0.1-0.1,0.3-0.3,0.3-0.5c0-0.7-0.1-1.3-0.2-2.1C271.8,256.8,270,258.4,270,261.2z M112.7,226c-0.1,0.1-0.1,0.2-0.1,0.2
			c0,1.4,0,2.9,0,4.3c0,1.3,0,1.3,1.4,1.6c0.1-0.7,0.3-1.4,0.4-2.1c0.1-0.7,0.3-1.4,0.4-2.1c-0.5,0.1-1.2,0.2-1.2,0.1
			c-0.2-0.6-0.2-1.2-0.3-2C113.3,226.1,113,226.1,112.7,226z M74.1,110.4c0.1-1.2-0.5-1.9-1.4-1.9c-0.8,0-1.4,0.7-1.4,1.7
			c0,0.4,0.1,0.7,0.1,1.1c0,0.7,0.3,1,0.9,1.2c0.6,0.1,1.1-0.1,1.3-0.7C74,111.3,74,110.8,74.1,110.4z M134.7,244.9
			c1,0,1.7-0.6,1.7-1.4c0-0.9-0.8-1.7-1.8-1.7c-0.9,0-1.6,0.6-1.6,1.5C133,244.2,133.6,244.8,134.7,244.9z M137.8,250.6
			c-0.3-0.2-0.6-0.4-0.9-0.6c-0.7-0.5-1.6-0.8-1.5-2c0-0.3-0.5-0.7-0.9-0.9c-0.1-0.1-0.7,0.2-0.7,0.4c0,0.5,0.1,1,0.3,1.3
			c0.3,0.4,0.8,0.7,1.2,1c0.9,0.7,2.2,0.9,2.9,2c0.1,0.2,0.9,0.2,1.2,0c0.2-0.2,0.4-0.9,0.2-1.2c-0.2-0.3-0.8-0.3-1.2-0.4
			C138.3,250.2,138,250.4,137.8,250.6z M82,158.1c1.4,2.4,2.8,4.8,4.2,7.3C86.5,161.9,84.6,159.8,82,158.1z M58,246.5
			c-0.1-0.1-0.1-0.1-0.2-0.2c-0.2,0.2-0.4,0.4-0.7,0.6c-1.2,0.7-2.4,1.4-3.6,2c-0.5,0.3-1.1,0.5-1.6,0.7c0.3,0.6,0.5,1,0.8,1.5
			c0.6-0.4,1.2-0.8,1.7-1.3c0.6-0.6,1.2-1.2,2.1-0.6C57,248.3,57.5,247.4,58,246.5z M77.1,113.3L77.1,113.3c0-0.4,0-0.8-0.1-1.1
			c-0.1-0.4-0.3-0.9-0.6-1c-0.6-0.1-1.1,0.3-1.3,0.9c-0.1,0.4-0.2,0.9-0.2,1.4c-0.1,1,0.3,1.6,1.1,1.7c0.8,0,1.1-0.5,1.1-1.6
			C77.1,113.4,77.1,113.4,77.1,113.3z M277.2,254.7c1.5,0,1.7,0.2,1.7,1.7c0,0.1,0,0.3,0.1,0.3c0.9,0.5,1.6,1.3,2.7,1.4
			c-0.1-0.4-0.1-0.8-0.2-1.2c0-0.2-0.1-0.4-0.2-0.5c-1.5-0.8-2.7-1.9-3.6-3.5C277.6,253.4,277.4,254,277.2,254.7z M223.1,138.2
			c-2.3-0.5-4.4-0.9-6.6-1.4c1.5,1.9,3.6,1.9,5.5,2.6C222.3,139,222.6,138.7,223.1,138.2z M49.2,262.9c-0.6,0-1.4-0.3-1.7,0
			c-0.7,0.6-1.2,1.4-1.8,2.2c-0.1,0.1-0.1,0.3-0.1,0.6c0.8-0.3,1.4-0.6,2-0.7C48.6,264.9,49.3,264.5,49.2,262.9z M113.3,239.9
			c1.2-0.1,1.5-0.7,1.4-2.7c-0.3,0.8-0.6,1.4-0.8,2c0.1-1.1,0.3-2.1,0.6-3.1c0.1-0.4,0.3-0.8,0.5-1.1c0.5-0.8,0.4-1-0.7-1.2
			C114,235.8,112.9,237.7,113.3,239.9z M121.2,255.4c-0.1-0.1-0.1-0.1-0.2-0.2c-0.3,0.2-0.7,0.3-0.9,0.5c-0.3,0.3-0.5,0.7-0.8,1.1
			c-1.1,1.1-2.2,2.2-3.3,3.4c-0.3,0.4-0.5,0.8-0.8,1.3c0.1,0.1,0.2,0.1,0.2,0.2C117.4,259.5,119.3,257.5,121.2,255.4z M268.8,272.5
			c0,0.1,0,0.2,0.1,0.3c0.8,0.2,1.6,0.4,2.3,0.5c1.4,0.1,1.5,0.1,2.1-1.3c-1.2,0-2.4,0-3.5,0C269.4,272,269.1,272.3,268.8,272.5z
			 M205.8,176.2c-2.5,1.6-3,2.7-1.9,4.7C204.5,179.4,205.1,177.9,205.8,176.2z M271,256.9c0.9-0.7,1.7-1.3,2.5-2
			c0.3-0.3,0.6-0.6,0.2-0.9c-0.3-0.2-1-0.3-1.1-0.2C271.8,254.7,270.7,255.4,271,256.9z M42.1,263.8c2.1,0.3,3.5-0.1,3.8-1
			C44.4,262,43.1,262.6,42.1,263.8z M188.4,189.6c0.2,0.4,0.5,0.7,0.7,1.1c0.4-0.3,0.8-0.6,1-0.9c0.3-0.4,0.4-1,0.7-1.2
			c0.4-0.2,0.9-0.1,1.5-0.1c-0.1-0.4-0.2-0.9-0.3-1.4C190.6,187.7,190.1,189.5,188.4,189.6z M267.6,253.4c-0.1,0-0.2-0.1-0.3-0.1
			c-0.2,0.4-0.7,0.8-0.7,1.1c0.1,1,0.4,2,0.6,3C268.1,256.2,267.5,254.8,267.6,253.4z M30.5,286.2c0.8,0.3,1.4,0.6,2.1,0.8
			c0.2-1.3,0-1.8-1.2-2.6C31.1,285,30.9,285.5,30.5,286.2z M129.2,235.1c-0.6-0.9-1.4-1.2-2-0.8s-0.6,0.9,0.2,1.9
			C128,235.8,128.6,235.5,129.2,235.1z M194.3,200.7c0.1,0,0.2,0,0.4,0c0.2-0.8,0.3-1.6,0.5-2.5c-0.1,0-0.2-0.1-0.2-0.1
			c-0.5,0.3-1,0.5-1.5,0.8C193.7,199.6,194,200.1,194.3,200.7z M45.7,271.7c1.5-0.4,1.3-1.4,1.4-2.4c-0.4-0.1-0.7-0.1-1.1-0.2
			C45.9,269.9,45.8,270.7,45.7,271.7z M91.9,173.3c1.1,1.5,2.3,3,3.5,4.7C94.9,176.2,93.2,173.9,91.9,173.3z M205.5,171.8
			c2.4,0.2,2.5,0,2.9-1.8C207.5,170.6,206.6,171.1,205.5,171.8z M41.8,272.2c0.7,0.4,1.3,0.8,2,1.2c0.1-0.1,0.2-0.2,0.3-0.3
			c-0.4-0.6-0.7-1.3-1.1-2C42.5,271.5,42.2,271.8,41.8,272.2z M28.5,278.8c0.6,0.5,1,0.9,1.5,1.3c0.8-0.7,0.2-1.3,0.1-2
			c-0.2,0-0.3,0.1-0.4,0.1C29.3,278.4,29,278.6,28.5,278.8z M197.6,200.7c-1-0.1-1.3,0.5-1.2,1.8
			C197.6,202.4,197.7,202.2,197.6,200.7z M114.3,242.4c0.2,0.2,0.4,0.4,0.7,0.7c0.4-0.6,0.8-1.2,1.2-1.7
			C115,241.1,115,241.1,114.3,242.4z M113.4,236c0.1-0.4,0.2-0.7,0.2-0.9c0.1-0.3,0.1-0.5,0.1-0.8c0.2-1.1,0-1.2-1.4-1.2
			c0.3,0.5,0.6,0.8,0.7,1.2C113.3,234.9,113.3,235.4,113.4,236z M272.7,284.3c0,0.1,0,0.1,0.1,0.2c0.4,0,0.9,0,1.3-0.1
			c0.3,0,0.5-0.2,0.8-0.3c-0.1-0.2-0.2-0.5-0.4-0.6c-0.2-0.1-0.6-0.1-0.8,0C273.3,283.7,273,284,272.7,284.3z M123,238.6
			c1.1-0.2,1.3-0.8,1.1-1.6c0-0.2-0.2-0.3-0.4-0.5c-0.1,0.1-0.3,0.2-0.4,0.4C123.2,237.4,123.1,238,123,238.6z M271.1,252.3
			c1-1,1.1-1.2,0.3-2.1C270.9,250.9,271.2,251.6,271.1,252.3z M197.9,196.5c-0.8,0.4-1.4,0.7-2,1c0,0,0,0.1,0.1,0.1
			c0.6,0,1.2-0.1,1.9-0.1C197.9,197.4,197.9,197,197.9,196.5z M275.6,282.7c0.5-0.7,0.9-1.3,1.3-1.9c-0.1,0-0.1-0.1-0.2-0.1
			c-0.6,0.5-1.1,1-1.7,1.5C275.2,282.4,275.4,282.5,275.6,282.7z M197.2,206.9c0.5-1.5,0.2-1.9-0.8-1.8
			C196.7,205.6,196.9,206.2,197.2,206.9z M115.1,231c0.2,0.6-1,1.3,0.3,2C115.2,232.3,116,231.6,115.1,231z M265.4,245.9
			c-0.3,1-0.1,1.5,0.7,1.7C265.9,247.1,265.7,246.6,265.4,245.9z M119.8,243.2c-0.1,0-0.3,0-0.4,0.1c0.1,0.4,0.1,0.8,0.2,1.2
			c0.2-0.1,0.5-0.2,0.5-0.2C120,243.8,119.8,243.5,119.8,243.2z M115.3,230.2c0.9-0.4,0.5-1,0.6-1.6c-0.1,0-0.1,0-0.2-0.1
			C115.5,229.1,115.4,229.7,115.3,230.2z M130.9,243c-0.1,0-0.2-0.1-0.2-0.1c-0.2,0.4-0.5,0.7-0.8,1.2c0.5,0,0.8-0.1,1.2-0.1
			C131,243.6,130.9,243.3,130.9,243z"/>
		<path id="path6188" class="st3" d="M48.6,233.5c-1.3-0.4-2.5-0.8-3.7-1.1c-0.2,0-0.5,0.1-0.6,0.2c-0.4,0.6-0.7,1.2-1.1,1.9
			c-0.1,0.1,0,0.4,0.1,0.5c0.5,0.6,0.5,1.2,0.1,1.9c-0.9,1.6-2.1,2.9-3.9,3.7c-0.8,0.3-1.4,1-2.2,1.4c0.3-0.3,0.6-0.6,0.9-1
			c0.3-0.4,0.6-0.9,0.8-1.4c0.5-0.9,0.9-1.8,1.4-2.7c0.4-0.8,0.9-1.5,0.8-2.4c0-0.4,0.3-0.9,0.5-1.4s0.4-1.1,0.7-1.7
			c-0.7-0.1-1.2-0.1-1.8-0.2c-0.3-0.1-0.5-0.3-0.8-0.5c0.2-0.3,0.3-0.8,0.6-0.8c0.5-0.1,1.1-0.2,1.6,0c0.7,0.2,0.8-0.1,1.1-0.6
			c0.5-0.9,1-1.8,1.6-2.7c0.4-0.6,1.1-1,1.9-1c0.8,0,1.4,0.5,1.6,1.2c0.2,0.8,0,1.3-0.6,1.8s-1.1,1.1-1.8,1.7
			c1.5,0.3,2.7,0.6,3.9,0.8c0.3,0,0.6-0.1,0.9-0.2c1.4-0.8,2.7-0.4,3.3,1.2c0.1,0.3,0.3,0.5,0.5,0.8c0.5,0.5,0.5,1.1,0.1,1.7
			c-0.4,0.5-1,0.4-1.7-0.1c-0.4,0.6-0.9,1.1-1.4,1.7c-0.6,0.7-1.3,1.4-2,2.1c-0.5,0.5-1,1.1-1.5,1.6c-0.3,0.4-0.6,0.9-1.1,1
			c-0.4,0.1-1.2,0.1-1.5-0.2c-0.3-0.2-0.3-1.1-0.1-1.4C47.1,237.8,47.1,235.3,48.6,233.5z"/>
		<path id="path6190" class="st3" d="M42,213c-1,1.1-1.9,2-2.8,3c-0.8,0.9-1.5,1.2-2.1,0.9c-0.7-0.4-0.9-1.5-0.3-2.4
			c0.9-1.5,2.1-2.9,3.1-4.3c0.2-0.3,0.5-0.6,0.8-0.9c-0.8-0.2-1.5-0.4-2.2-0.7c-0.5-0.2-0.8-0.6-0.7-1.2c0-0.3,0.3-0.7,0.4-0.7
			c0.4,0,0.9,0.1,1.2,0.4c1.1,0.9,2.2,1,3.3,0c0.4-0.4,0.9-0.7,1.4-0.9c0.6-0.3,1.3-0.3,1.8,0.2c0.5,0.6,0.5,1.2,0.1,1.8
			c-0.7,1-1.4,1.9-2.2,2.8c-0.3,0.3-0.6,0.7-0.9,1.1c1.3,0.2,2,1.2,2.3,2.3c0.3,1,0.2,2.2,0.2,3.2c0,0.6-0.3,1.2-0.5,1.8
			c-0.1,0.2-0.4,0.4-0.6,0.6c-0.1-0.3-0.3-0.5-0.4-0.8C43.3,217.3,43.3,215.1,42,213z"/>
		<path id="path6192" class="st2" d="M145.1,323.4c-0.1-0.1-0.2-0.1-0.4-0.2c-1.7-0.9-2.2-2.5-1.1-4.1c0.9-1.3,1.8-2.5,3.6-2.7
			c0.8-0.1,1.7-0.5,2.5-0.6c1.3-0.2,2.2,0.5,2.8,1.7c0.9,1.7,0.7,3.9-0.7,5.3c-0.3,0.3-0.8,0.4-1.1,0.3s-0.5-0.6-0.6-1
			c-0.3-0.9-0.4-1.8-0.7-2.9C147.7,320.3,146.7,322.3,145.1,323.4z"/>
		<path id="path6194" class="st3" d="M25.9,292c-1.2-0.6-1.9-1.6-2.2-2.9c-0.2-1-0.3-2.1-0.4-3.1c-0.1-1.1,0.6-1.8,1.6-1.8
			c0.5,0,0.8,0.1,0.7,0.7c-0.1,0.9-0.4,1.8-0.5,2.7c0,0.6,0.1,1.1,0.2,1.7c0.2,0.9,0.5,1.8,0.8,2.6C26.1,291.9,26,291.9,25.9,292z"
			/>
		<path id="path6198" class="st3" d="M281.4,238.7c-1.3,0.3-2.3-0.5-3.1-1.5c-0.2-0.2-0.1-0.6-0.1-0.9c0.3,0,0.5-0.1,0.8,0
			c0.7,0.2,1.4,0.4,2.1,0.6c0.5,0.1,1,0,1.5,0.1c0.3,0.1,0.8,0.6,0.8,0.8c-0.1,0.3-0.5,0.7-0.8,0.9
			C282.2,238.8,281.8,238.7,281.4,238.7z"/>
		<path id="path6200" class="st3" d="M32.8,258c0.2,0.1,0.7,0.2,1.1,0.4c0.2,0.1,0.4,0.4,0.6,0.6c-0.3,0.1-0.5,0.2-0.8,0.2
			c-0.5,0-1-0.1-1.6-0.2c-0.3,0.8-0.6,1.6-0.9,2.4c-0.1,0-0.2,0-0.3,0c0-0.9-0.1-1.7-0.1-2.7c-0.3-0.1-0.7-0.3-1.1-0.5
			c0-0.1,0-0.1,0-0.2c0.3,0,0.7,0,1-0.1s0.6-0.3,0.8-0.5c0.3-0.4,0.5-1,1-0.7C32.7,256.8,32.7,257.4,32.8,258z"/>
		<path id="path6204" class="st3" d="M30.4,254.6c-0.1-1-0.3-1.7-0.3-2.5c-0.1-0.7,0.3-1.1,0.9-1.3c0.7-0.2,1.3-0.1,1.7,0.5
			c0.4,0.5,0,0.9-0.5,1c-1,0.2-1.5,0.7-1.5,1.8C30.8,254.2,30.6,254.3,30.4,254.6z"/>
		<path id="path6206" class="st3" d="M287.8,243.4c0.9,1,1.6,1.9,2.3,2.7c0.2,0.3,0.4,0.7,0.6,1.2c-0.4,0-0.5-0.1-0.7-0.1
			c-1.7,0-1.8,0-2-1.8C287.9,244.8,287.8,244.2,287.8,243.4z"/>
		<path id="path6208" class="st3" d="M25.9,271.4c-0.8-0.4-1.6-0.8-2.4-1.1l-0.1,0.1c0.4,0.4,0.8,0.9,1.2,1.3s0.8,0.7,1.2,1.2
			c-1.4-0.5-2.4-1.5-3.3-2.7c-0.1-0.2-0.2-0.5-0.1-0.7c0.1-0.1,0.4-0.3,0.6-0.2C24.1,269.6,25.2,270.2,25.9,271.4L25.9,271.4z"/>
		<path id="path6210" class="st3" d="M38.5,249.9c-0.8,0.1-1.2-0.3-1.2-1c0-0.6,0.5-1.1,1.1-1.1c0.7,0,1.5,0.7,1.5,1.3
			C39.8,249.8,39.1,249.8,38.5,249.9z"/>
		<path id="path6212" class="st3" d="M25.5,273.6c0,0.6,0,1.3,0,2.2c-0.5-0.3-0.9-0.5-1.4-0.7c0.3-0.5,0.7-1.1,1-1.6
			C25.3,273.4,25.4,273.5,25.5,273.6z"/>
		<path id="path6214" class="st3" d="M27.2,250.3c0.4-1.4,1.3-1.7,2.4-0.8C28.7,249.7,28,250,27.2,250.3z"/>
		<path id="path6216" class="st3" d="M297.7,254.6c-0.4-0.9-0.9-1.7-1.3-2.6c0.1-0.1,0.2-0.1,0.3-0.2c0.5,0.8,0.9,1.7,1.4,2.5
			C297.9,254.5,297.8,254.6,297.7,254.6z"/>
		<path id="path6218" class="st3" d="M52.1,241.9c-0.7-0.3-1.3-0.5-2-0.8c0-0.1,0.1-0.2,0.1-0.3c0.8-0.2,1.4,0.1,2,0.7
			C52.2,241.7,52.2,241.8,52.1,241.9z"/>
		<path id="path6222" class="st2" d="M164.5,292.8c0.9-0.9,1.1-5.6,0.4-7.4c-0.2,0.6-0.3,1.2-0.5,1.7c-0.2,0.7-0.7,1.2-1.5,1.1
			c-0.7,0-1.2-0.7-1.2-1.5c0.1-1.2,0.4-2.4,0.7-3.6c0.2-0.7,0.7-1.2,1.5-1.2c0.2,0,0.3-0.1,0.5-0.2c1-0.6,1.6-0.5,2.2,0.5
			c0.8,1.2,1.3,2.6,1.4,4.1c0.1,2.3,0.4,4.7-0.4,7c-0.6,2-2.3,2.7-4,3.2c-1.2,0.4-2.1-0.5-2.2-1.8c0-0.6,0.1-1.2,0.2-1.8
			c0.1-0.7,0.5-1.3,1.2-1.4c0.8-0.1,1.1,0.5,1.4,1.1C164.4,292.6,164.5,292.7,164.5,292.8z"/>
		<path id="path6224" class="st2" d="M199.4,276.9c-0.2,0.2-0.3,0.2-0.4,0.3c-1,1.6-2.7,1.4-4.2,1.1c-1.2-0.2-1.9-1.1-2.1-2.3
			c-0.5-2.7,0-5.1,1.3-7.5c0.6-1,1.2-1.8,2.5-1.7c0.2,0,0.4-0.2,0.5-0.3c1-0.9,2.2-1,3.2-0.1c2.4,1.9,3.2,4.3,2.7,7.3
			c-0.1,0.4-0.3,0.8-0.5,1.2c-0.8,1.4-1.7,2.8-2.4,4.3c-0.2,0.5-0.2,1.1-0.3,1.6c-0.1,0.9-1,1.5-1.9,1.3c-0.9-0.1-1.5-0.8-1.5-1.5
			s0.4-1,1.1-1c0.9,0,1.4-0.4,1.5-1.3C199,277.9,199.2,277.5,199.4,276.9z M197.3,269.8c-0.2,0.1-0.3,0.1-0.3,0.2
			c-1.1,1.7-1.5,3.7-1.5,5.7c0,0.2,0.4,0.5,0.6,0.5c0.4,0,0.8-0.3,1.2-0.4c0.6-0.3,1.2-0.8,1.8-0.7c0.9,0.1,1.3-0.3,1.4-0.9
			c0.1-0.7-0.2-1.4-0.3-2.2C198.9,271.7,198,271,197.3,269.8z"/>
		<path id="path6226" class="st2" d="M164.5,252.3c0.4,1.5-0.5,2.9-1.5,4.1c-0.6,0.7-1.6,1-2.4,0.6c-0.8-0.3-1.3-0.9-1.1-1.8
			c0.1-0.5,0.5-1.1,0.9-1.2c0.9-0.3,1.1-0.9,1.2-1.7c0.1-1.4-0.3-2.7-1.1-3.9c-0.1-0.2-0.5-0.5-0.7-0.5c-0.3,0.1-0.5,0.4-0.6,0.7
			c-0.1,0.4-0.1,0.8-0.1,1.2c0,0.5,0.4,1.1-0.5,1.3c-0.1,0-0.1,0.5-0.1,0.7c0.2,1.4,0,2.1-0.8,2.3c-0.9,0.3-2.1-0.3-2.6-1.4
			c-0.6-1.4-0.7-2.9-0.4-4.4c0.1-0.8,0.4-1.6,0.8-2.3c0.5-0.9,1.3-1.2,2.3-1.2c0.4,0,0.8-0.1,1.2-0.2c1.9-0.4,3.1,0,4.1,1.7
			C164,248.4,164.7,249.8,164.5,252.3z"/>
		<path id="path6228" class="st2" d="M174.9,209.3c-0.2,0.8-0.2,1.6-0.5,2.2c-0.6,1.6-1.7,2-3.3,1.2c-2.5-1.2-3.8-3.3-4.3-5.9
			c-0.3-1.5-0.3-3.2-0.4-4.8c0-1.4,0.7-2.1,2-2.2c0.5,0,0.9,0,1.4,0c1.2,0.1,2,0.9,2.1,2c0.1,0.7-0.1,1.3-0.7,1.5
			c-0.6,0.3-1.1,0.1-1.6-0.4c-0.1-0.1-0.2-0.2-0.3-0.4c-0.5,2,1.7,6.4,3.6,7.3c0.6-0.5,0.9-1,0.5-1.9c-0.4-0.8-0.5-1.8-0.7-2.7
			c-0.1-0.6,0.1-1.1,0.7-1.4c0.8-0.4,1.5-0.3,2.1,0.3c1,1,1,2.3,0.7,3.6C176,208.8,175.8,209,174.9,209.3z"/>
		<path id="path6230" class="st2" d="M141.6,212.8c0.1,1.5-0.2,3.1,0.4,4.4c0.5,1,1.6,2.1,3,2.6c0-1.5,0.1-2.9,0-4.2
			c-0.1-1.1,0.2-2.1,0.8-2.4c0.9-0.4,1.9,0.1,2.6,1.1c0.1,0.2,0.3,0.4,0.3,0.6c0.5,2.4,0.8,4.8-0.4,7.1c-0.5,0.9-1.2,1.4-2.2,1.4
			c-2,0-3.8-0.4-5.2-2c-0.2-0.2-0.3-0.4-0.5-0.6c-3-2.2-2.4-5.3-2.1-8.3c0.1-0.7,0.6-1.1,1.3-1.3c0.3-0.1,0.7-0.3,0.9-0.6
			c0.5-0.6,1.1-0.9,1.8-0.6c0.5,0.2,1,0.7,1.2,1.2C143.8,212.1,143.1,212.6,141.6,212.8z"/>
		<path id="path6232" class="st2" d="M190.2,242c-0.3-1.1-0.6-2.1-0.9-3.1c0-0.2-0.1-0.3-0.2-0.5c-1-1-2-2-3-3
			c-0.2-0.2-0.5-0.3-0.8-0.4c-0.4-0.1-0.8,0-0.7,0.6c0,0.8,0.1,1.5,0.2,2.2c0.2,1.3,0.5,2.6,0.9,3.9c0.2,0.8,0.7,1.5,0.8,2.3
			c0.1,0.4,0,1-0.3,1.3c-0.4,0.5-0.9,0.3-1.3,0c-0.5-0.3-1.1-0.5-1.5-0.9s-0.7-0.9-0.9-1.4c-0.4-1.4-0.7-2.7-0.9-4.1
			c-0.2-1.4-0.3-2.8-0.2-4.1c0.1-1.8,1.3-2.8,3.2-2.9c1.5-0.1,2.8,0.2,3.9,1.3c1.1,1.1,2.2,2.1,3.2,3.2
			C193,237.9,192.3,240.9,190.2,242z"/>
		<path id="path6234" class="st2" d="M141.9,175.6c0.1-2.2,0.2-3.8,1-5.2c0.5-0.9,1.3-1.7,2-2.4c0.9-0.9,2.7-0.6,3.4,0.5
			c0.3,0.4,0.6,0.8,1,1c1.5,0.8,2.3,2,2.5,3.7c0.1,0.5,0.6,0.9,0.6,1.4c0,1.1-0.2,2.3-0.5,3.4c-0.2,0.7-0.7,1.4-1.1,2.1
			c-0.8,1.3-1.8,1.6-3.3,1.1c-1.9-0.6-3.4-1.7-4.7-3.1C142,177.3,141.8,176.2,141.9,175.6z M150.2,177.7c0-0.6,0-1.1,0-1.6
			c0-0.3-0.1-0.8,0-1c0.4-0.6,0.1-1-0.2-1.4c-0.5-0.7-1.1-1.1-2-1.4c-2.2-0.8-2.1-0.3-2.5,1.7c-0.2,1.2,0.4,2.2,1.5,2.6
			C148,177,149,177.3,150.2,177.7z"/>
		<path id="path6236" class="st2" d="M118.1,177.6c-0.5,2.5-0.4,4.6,1.5,6.3c0.3,0.3,0.9,0.4,1.3,0.6c0.5,0.1,0.9,0,0.9-0.7
			c0-0.2,0.5-0.4,0.8-0.6c0.2,0.3,0.4,0.6,0.5,0.9c0.1,0.3,0.1,0.6,0.2,0.8c0.8,1.5,0,2.9-1.7,3s-3.2-0.4-4.4-1.7
			c-1.5-1.6-2.5-3.5-2.4-5.8c0.1-1.4,0.2-2.8,0.5-4.1c0.4-1.6,1.3-1.9,2.8-1.3c0.2,0.1,0.4,0.1,0.7,0.1c1.5-0.2,3,1,2.9,2.5
			c0,0.5-0.3,1.1-0.7,1.3s-1,0-1.4-0.2C119.1,178.4,118.7,178,118.1,177.6z"/>
		<path id="path6238" class="st2" d="M139,140.8c0.1-0.5,0.1-1.1,0.3-1.5s0.7-0.8,1-0.8s0.8,0.4,1,0.8c0.9,1.8-0.5,3.9-2.4,4.1
			c-1.2,0.1-2.5,0.2-3.4-0.8c-0.5-0.5-1.1-1.2-1.1-1.9c-0.1-2.1-0.1-4.2,0.1-6.3c0.2-1.6,1.4-2.1,2.9-1.7c0.2,0.1,0.5,0,0.8,0
			c0.6,0,1.1,0.3,1.2,0.9c0.2,0.6-0.1,1.2-0.7,1.3c-0.8,0.2-1,0.8-1,1.4c-0.1,1.3-0.2,2.5-0.2,3.8C137.6,140.7,138,140.9,139,140.8z
			"/>
		<path id="path6240" class="st2" d="M155.8,80c1.3-0.1,1.9,0.4,1.6,1.6c-0.1,0.3-0.4,0.5-0.6,0.7c-0.2-0.2-0.4-0.4-0.5-0.6
			c-0.2-0.3-0.4-0.6-0.7-1.1c-0.5,1.2-0.9,2.2-1.3,3.4c0.7-0.1,1.2-0.1,1.7-0.2c0.7-0.2,1,0.1,0.8,0.7c-0.4,1.5-2.6,2.8-4.1,2.4
			c-0.7-0.2-1.1-0.6-1.2-1.3c-0.3-2.5,0.4-4.6,2.1-6.3C154.5,78.4,155.4,78.7,155.8,80z"/>
		<path id="path6242" class="st2" d="M141,108.5c0.4-0.4,0.5-0.7,0.8-0.9c0.9-0.7,2.2-0.2,2.3,1c0.1,0.8,0,1.8-0.2,2.6
			c-0.3,1-1.1,1.7-2.3,1.7c-1.3,0-2.3-0.2-2.9-1.5c-1.1-2.2-0.8-6.1,0.8-8c0.7-0.9,1.7-1.4,2.8-1.6c1.2-0.2,1.8,0.1,2.2,1
			c0.4,1,0.2,1.8-0.8,2.6c-0.6-0.6-1.2-1.2-1.9-1.9C140.8,105,141,106.6,141,108.5z"/>
		<path id="path6244" class="st2" d="M112.2,134.7c0,1.3,0,2.7,0,4c1.2,0.3,1.8,1.2,1.5,2.4c-0.1,0.4-0.5,0.9-0.9,1.1
			c-1.1,0.6-2.3,0.2-3.1-0.7c-0.9-1-1.5-2.1-1.4-3.5c0.1-1.1,0-2.3,0-3.4c0-1.5,1.2-2.9,2.6-3.2c0.1,0,0.4-0.1,0.4,0
			c0.6,1.1,2.3,0.9,2.7,2.3c0.3,0.9,0.1,1.5-0.4,2.2c-0.3,0.4-0.6,0.3-0.8-0.1C112.6,135.4,112.4,135,112.2,134.7
			C112.3,134.7,112.2,134.7,112.2,134.7z"/>
		<path id="path6246" class="st2" d="M223.5,191.5c-0.3-0.1-0.5-0.2-0.9-0.3c-0.4,0.7-0.9,1.3-1.3,2c-0.3,0.5,0,0.8,0.6,0.8
			c0.3,0,0.5,0,0.8,0.1c0.8,0.1,1.2,0.6,1.3,1.3s-0.6,1.5-1.3,1.5c-1,0-1.9-0.1-2.8-0.3c-0.7-0.1-1.1-0.7-1.1-1.5s0.1-1.6,0-2.4
			c-0.1-1.2,0.4-2.2,1.1-3.1c0.7-1,3.1-1.4,4.1-0.7c0.3,0.2,0.7,0.7,0.6,1.1c-0.1,0.8-0.3,1.6-0.6,2.3c-0.1,0.2-0.4,0.2-0.6,0.3
			c0-0.2,0-0.4,0-0.7C223.4,191.8,223.5,191.7,223.5,191.5z"/>
		<path id="path6248" class="st2" d="M230.6,214.7c0.4-0.4,0.7-0.7,1.1-0.9c0.2-0.2,0.5-0.3,0.7-0.3c0.2,0.1,0.5,0.4,0.5,0.6
			c0.1,1.9,0.1,3.8-0.8,5.5c-0.7,1.5-2.6,2.2-4.2,1.7c-0.8-0.3-1.2-0.9-1.1-1.7c0.1-1.5,0.2-3,0.4-4.5c0.1-0.8,0.6-1.5,1.5-1.7
			C229.5,213.4,230.1,213.9,230.6,214.7z"/>
		<path id="path6250" class="st2" d="M239.2,199.3c0,0.2,0,0.4,0.1,0.6c-0.1,0.1-0.2,0.1-0.3,0.2c-0.3-0.4-0.8-0.8-0.8-1.2
			c-0.3-1.8,0.1-3.4,1-5c0.6-0.9,1.6-1.1,2.5-1c0.3,0,0.8,0.4,0.9,0.7c0.5,1.3,0.8,2.8,0,4C241.8,198.7,240.7,199.4,239.2,199.3z
			 M238.9,197.6c0.1,0.1,0.2,0.2,0.4,0.3c0.5-0.5,1-1,1.4-1.5c0.1-0.1-0.1-0.3-0.1-0.4c-0.2,0.1-0.4,0.1-0.5,0.2
			c-0.3,0.2-0.5,0.5-0.7,0.7C239.3,197.1,239.1,197.4,238.9,197.6z"/>
		<path id="path6252" class="st2" d="M102.4,242.7c-0.2-0.8-0.5-1.6-0.7-2.4c-0.1,0-0.1-0.1-0.2-0.1c-0.3,0.7-0.8,1.3-0.8,2
			c0,0.5,0.5,1.1,0.9,1.4c0.5,0.3,0.8,0.5,0.6,1c-0.2,0.4-0.6,0.8-0.9,1.1c-0.1,0.1-0.4,0.1-0.7,0.1c-0.8-0.1-1.9-1.3-2-2.1
			c-0.3-2,0.1-3.8,1.4-5.4c0.6-0.7,1.5-0.9,2.6-0.6c0.9,0.2,1.3,0.9,1.3,1.7s-0.1,1.7-0.3,2.5c-0.1,0.4-0.6,0.7-0.9,1
			C102.6,242.8,102.5,242.7,102.4,242.7z"/>
		<path id="path6254" class="st2" d="M210,214.4c0.3-0.4,0.6-0.8,0.9-1.3c0.4-0.6,0.8-0.9,1.5-0.7c0.7,0.3,0.9,1,0.6,1.6
			c-0.3,0.7-0.7,1.4-1.1,2.1c-0.1,0.2-0.3,0.3-0.5,0.4c-2.5,1.1-5.3-0.5-5.5-3.1c-0.2-2.4,0.5-3.5,2.8-4.2c0.7-0.2,1.3-0.5,2-0.5
			c0.4,0,1,0.3,1.1,0.7c0.3,0.5-0.2,0.8-0.7,1.1c-0.6,0.3-1.1,0.8-1.1,1.6s-0.2,1.6-0.3,2.4C209.8,214.4,209.9,214.4,210,214.4z"/>
		<path id="path6256" class="st2" d="M83,287.7c-0.9-0.9-1.6-1.7-2.2-2.4c-1.6,1.2-1.7,3-1.5,4.7c0,0.4,0.6,0.7,1.2,1.3
			c0.1-0.9,0.2-1.5,0.4-2.1c0.2-0.4,0.5-0.9,0.9-1.1c0.6-0.3,1.2,0.2,1.2,0.8c-0.1,1-0.2,2-0.4,2.9c-0.1,0.7-0.6,1.1-1.4,1.2
			c-2.1,0-3.8-1.5-3.7-3.6c0-0.9,0-1.8,0.2-2.7c0.2-1.2,1-2.1,2-2.8c0.7-0.4,1.6-0.6,2.4-0.6c1.1,0,1.9,1.8,1.6,3
			C83.4,286.8,83.2,287.2,83,287.7z"/>
		<path id="path6258" class="st2" d="M243.6,259.1c0-0.6,0-1.2,0-1.7c-0.9,0.2-1.8,0.4-2.6,0.5c-0.5,0.1-1.1,0.2-1.1-0.4
			c0-0.3,0.5-0.8,0.8-0.9c0.8-0.4,1.6-0.6,2.5-0.9c1.6-0.6,2.6,0,2.7,1.7c0.1,0.6,0,1.3,0,1.9c0,1.3-2.4,2.5-3.4,1.8
			c-0.3-0.2-0.6-0.9-0.6-1.3c0-0.6,0.5-0.8,1.1-0.7C243.2,259.1,243.3,259.1,243.6,259.1z"/>
		<path id="path6260" class="st2" d="M64.8,256.2c0.4-0.1,0.6-0.1,0.8-0.2c0.8-0.2,1.4,0,1.7,0.6c0.2,0.6-0.1,1.4-0.8,1.8
			c-1.9,1.1-3.9-0.1-3.9-2.2c0-1.2,0.3-2.3,1-3.2c0.7-0.9,1.4-1.9,2.1-2.8c0.8-0.9,2.7-0.9,3.5-0.1c0.6,0.6,0.3,2.3-0.5,2.7
			c-0.5,0.2-0.7,0-0.8-0.4c-0.2-0.8-0.5-0.8-1-0.2c-0.7,0.9-1.4,1.8-2,2.7C64.9,255.2,64.9,255.6,64.8,256.2z"/>
		<path id="path6262" class="st2" d="M212.3,236.4c-1.6,0.3-2.1-0.2-2.1-1.6c0.1-1.1,0.9-2.1,1.8-2.2c1-0.2,2.3,0.5,2.7,1.4
			c0.1,0.2,0.2,0.6,0.1,0.7c-0.5,0.6,0,1.1,0.1,1.6c0.2,1,0.3,2.1,0.4,3.1c0,1-0.6,1.6-1.4,1.7c-0.9,0.1-1.6-0.3-1.9-1.2
			c-0.3-0.8-0.5-1.7,0.2-2.4C212.4,237.3,212.2,236.9,212.3,236.4z"/>
		<path id="path6264" class="st2" d="M81.3,235.3c-1,1-2.4,1.8-2.2,3.9c0.3-0.3,0.6-0.4,0.8-0.6c0.3-0.4,0.6-0.9,0.9-1.3
			c0.4-0.6,1.1-0.5,1.4,0.2c0.6,1.3-0.9,4.1-2.3,4.1c-0.9,0-1.8-0.4-2.6-0.8c-0.3-0.1-0.5-0.8-0.5-1.2c0-2.2,0.9-4.1,2.7-5.4
			c0.6-0.4,1.4-0.8,2.1-1c0.5-0.1,1.2,0.2,1.5,0.5c0.4,0.4,0.7,1.2,0.7,1.8s-0.7,0.8-1.3,0.6C82.1,235.8,81.8,235.5,81.3,235.3z"/>
		<path id="path6266" class="st2" d="M177.6,61.1c-0.5,0.7-0.9,1.5-1.4,2.1c-0.5,0.5-1.2,0.9-1.9,1.3c-0.9,0.5-2.3-0.6-2.1-1.6
			c0.3-1.6,0.8-3.3,2.3-4.2c0.4-0.2,1-0.3,1.4-0.1C176.7,59.1,177.1,60,177.6,61.1z"/>
		<path id="path6268" class="st2" d="M89.6,213.7c-0.2-0.3-0.4-0.6-0.6-1c-0.8,1.6-1.5,2.9-1.3,4.5c0.1,0,0.2,0.1,0.2,0.1
			c0.1-0.4,0.3-0.8,0.3-1.3s0.1-1,0.6-1.1c0.6-0.1,1.1,0.1,1.4,0.7c0.4,0.8-0.2,2.3-1.1,3.1c-0.5,0.4-2,0.6-2.6,0.1
			c-0.3-0.2-0.5-0.7-0.5-1c-0.1-1.7-0.1-3.4,1.1-4.9c0.6-0.6,0.9-1.5,1.4-2.2c0.4-0.6,0.9-0.6,1.4-0.2
			C91.1,211.5,91,212.9,89.6,213.7z"/>
		<path id="path6270" class="st2" d="M118.6,100.2c0.1,0.3,0.1,0.5,0.1,0.8c0.2-0.3,0.3-0.8,0.6-1s0.9-0.4,1.1-0.3
			c0.3,0.2,0.5,0.7,0.6,1.1c0.1,0.3,0,0.7,0,1.1c0,0.2,0,0.5-0.1,0.6c-0.9,0.8-0.6,2-1.1,2.9s-1.1,1.8-1.8,2.5
			c-0.6,0.7-1.6,0.5-2.4,0.1c-0.8-0.3-0.6-1-0.7-1.7c-0.1-2.5,1.2-4.3,3-5.8C118.2,100.4,118.3,100.3,118.6,100.2z"/>
		<path id="path6272" class="st2" d="M235.6,172.2c1.5,0.7,1.7,2,0.6,3.3c-0.7,0.8-1.3,1.5-2.5,1.5c-1.1,0-1.7-0.5-1.9-1.6
			c-0.2-1.3,0.2-2.5,0.9-3.5c0.1-0.2,0.4-0.5,0.7-0.5c0.7-0.1,1.3-0.2,1.8-0.8c0.1-0.1,0.7,0,0.9,0.2s0.1,0.7,0.1,1
			C236.1,171.9,235.8,172,235.6,172.2z"/>
		<path id="path6274" class="st2" d="M53.7,284.5c0.1-1.1,0.2-2.3,0.4-3.4c0.1-0.4,0.5-0.8,0.6-1.2c0.2-0.8,0.3-1.6,0.4-2.4
			c0.1-0.9,0.6-1.5,1.4-1.5s1.1,0.4,1.4,1.3c1.1,3.4-0.5,6-2.5,8.5c-0.2,0.3-0.8,0.4-1.1,0.4c-0.2-0.1-0.4-0.6-0.5-1
			C53.7,285,53.7,284.8,53.7,284.5L53.7,284.5z"/>
		<path id="path6276" class="st2" d="M80.2,309.7c0.5-0.3,1,0,1.6,0.4c1.6,1.1,2,2.7,1.7,4.5c-0.2,1.1-1.2,2-2.4,2c-0.5,0-1,0-1.5,0
			c-1.4,0-2.2-0.7-2.2-2.1c0-1.5,0.1-3,0.3-4.5c0-0.4,0.5-0.9,0.8-0.9C79.1,309,79.5,309.4,80.2,309.7z M80.3,311.1
			c-0.1,0-0.3,0.1-0.4,0.1c-0.1,1.1-0.3,2.2-0.4,3.4c0.4,0,0.5,0,0.7,0c1.2,0,1.4-0.1,1.2-1.2C81.2,312.6,80.7,311.8,80.3,311.1z"/>
		<path id="path6278" class="st2" d="M226.2,264c1.6-0.4,2.3,0.2,2.1,1.7c0,0.3-0.1,0.7-0.2,1c-0.4,1.3-1,1.7-2.1,1.7
			s-2-0.8-2.2-1.9c-0.2-2.1-0.3-4.2,0.4-6.3c0.2-0.7,0.6-1.2,1.4-1.3c0.9-0.1,1.5,0.7,1.3,1.7C226.7,261.6,226.5,262.7,226.2,264z"
			/>
		<path id="path6280" class="st2" d="M235.9,238.8c1.1-0.5,1.8-0.5,2.2,0.2c0.5,0.8,0.2,2.1-0.5,2.7c-0.2,0.1-0.3,0.2-0.5,0.4
			c-0.8,1-1.5,1.2-2.7,0.8c-1.1-0.4-1.6-1-1.5-2.2c0-1.4,0.1-2.8,0.2-4.3c0-0.3,0.1-0.6,0.3-0.9c0.3-0.6,0.7-0.7,1.2-0.2
			c0.3,0.3,0.6,0.6,0.8,0.7c0.5-0.1,0.8-0.2,1-0.3c0,0.3,0.1,0.8,0,0.9C235.6,237.3,236,238.1,235.9,238.8z"/>
		<path id="path6282" class="st2" d="M53,304.7c0-0.2,0-0.4,0-0.6c0-1.4,1-2.1,2.3-1.7c0.4,0.1,0.8,0.5,1,0.9c0.4,0.8-0.2,2.8-1,3.3
			c-0.5,0.3-1.2,0.4-1.8,0.2c-0.3-0.1-0.5-0.8-0.6-1.3C53,305.3,53,305,53,304.7L53,304.7z"/>
		<path id="path6284" class="st2" d="M91.1,260.6c-1,1.3-0.7,2.7-1.1,4c0.8,0.3,1.4,0.3,1.9-0.4c0.6-0.8,1.4-0.9,2-0.5
			c0.7,0.4,0.8,1.2,0.3,2.1c-1,1.9-3.8,2.2-5.2,0.6c-0.3-0.3-0.4-0.9-0.3-1.3c0.4-1.8,1-3.4,2.1-4.9c0.2-0.2,0.3-0.5,0.4-0.8
			c0.3-0.6,0.7-1,1.4-1c0.7-0.1,1.3,0.2,1.7,0.9c0.5,0.9,0.6,2,0.2,2.9c-0.2,0.5-0.8,1-1.3,1.1c-0.3,0.1-0.8-0.6-1.1-1
			C91.5,261.8,91.4,261.2,91.1,260.6z"/>
		<path id="path6286" class="st2" d="M241.7,279c1.1,0,1.8,0.9,1.6,2c-0.2,0.8-0.4,1.6-0.7,2.3c-0.2,0.7-0.6,1-1.4,0.9
			c-0.7-0.1-0.8-0.6-0.9-1.2c-0.1-0.8-0.3-1.6-0.4-2.4C239.7,279.8,240.6,279,241.7,279z"/>
		<path id="path6288" class="st2" d="M249.5,172.2c0-0.2,0.1-0.3,0.1-0.5c0.2-0.7,0.7-1.1,1.5-1.1c0.7,0,1.3,0.4,1.3,1.2
			c0,0.7-0.3,1.4-0.4,2.1c-0.1,0.3-0.1,0.6-0.1,0.9c-0.1,0.6-0.1,1.4-0.4,1.9c-0.3,0.3-1.1,0.5-1.6,0.4c-1.7-0.4-2.7-2.5-1.7-4.1
			c0.2-0.4,0.8-0.6,1.3-0.9C249.4,172.1,249.4,172.1,249.5,172.2z"/>
		<path id="path6290" class="st2" d="M104.6,217.3c0,0.7,0,1.3,0,1.9c0.1,0,0.2,0,0.3-0.1c1-0.2,1.5,0,1.7,0.7
			c0.1,0.6-0.4,1.5-1.2,1.6c-1.5,0.2-2.6-0.1-2.6-1.9c0-0.9-0.3-1.8-0.2-2.7c0-0.8,0.3-1.7,0.5-2.5c0-0.2,0.1-0.3,0.1-0.5
			c-0.1-0.8,0.2-1.3,0.9-1.6c0.8-0.2,1.6-0.1,2,0.6c0.3,0.5,0.5,1.1,0.6,1.7c0.1,0.4,0,0.8,0,1.2
			C106.7,217.5,106.1,217.9,104.6,217.3z"/>
		<path id="path6292" class="st2" d="M259,275.9c0.4-0.9,1-1.2,1.8-0.9c0.8,0.2,1.2,0.9,1.2,1.6s0,1.5-0.2,2.2
			c-0.4,1.2-1,1.7-1.9,1.7c-1.2,0-2.3-0.8-2.6-1.8c-0.1-0.4-0.2-0.9-0.1-1.3c0-0.9,0.1-1.7,0.2-2.6c0-0.2,0.2-0.6,0.3-0.6
			c0.2,0,0.6,0.1,0.7,0.3C258.6,274.9,258.8,275.4,259,275.9z"/>
		<path id="path6294" class="st2" d="M254.6,152.8c0,1.9-1,2.7-2.3,2.1c-0.4-0.2-0.8-0.7-0.8-1c0.1-1-0.5-1.7-0.9-2.4
			c-0.5-0.8-0.4-1.7,0.4-2.1c0.6-0.4,1.3-0.3,1.8,0.2C253.7,150.6,254.5,151.7,254.6,152.8z"/>
		<path id="path6296" class="st2" d="M241.7,139.4c0.1,0.3,0.2,0.6,0.3,0.9c-0.9,0.2-1.3-0.2-1.3-1c0-0.2-0.1-0.4-0.1-0.6
			c-0.1-0.5-0.3-1.2-0.1-1.5c0.3-0.4,0.9-0.7,1.4-0.8c1.9-0.1,3.8,2.3,3.3,4.1c-0.1,0.4-0.6,0.8-1,0.9c-0.4,0.1-0.9-0.2-1.3-0.3
			c-0.7-0.2-0.4-0.6-0.3-1c0-0.2-0.4-0.5-0.6-0.8C241.8,139.3,241.8,139.3,241.7,139.4z"/>
		<path id="path6298" class="st2" d="M90.5,195.5c1.2-0.2,1.6,0.1,1.7,1c0.1,1.1-0.3,1.7-1.3,1.7c-1.4,0-2.2-0.7-2.3-2
			c0-0.8,0.1-1.6,0.3-2.3c0.2-0.8,1-1,1.5-0.7c0.7,0.4,0.7,0.9,0.4,1.6C90.7,195,90.6,195.2,90.5,195.5z"/>
		<path id="path6300" class="st2" d="M80.7,164.8c-2.3-0.3-3-1.8-3.3-3.6c-0.1-0.6-0.1-1.3,0.6-1.5s1.1,0.3,1.4,0.9
			c0.4,0.8,0.8,1.6,1.1,2.5C80.6,163.6,80.6,164.2,80.7,164.8z"/>
		<path id="path6302" class="st2" d="M240.2,158.6c-0.3-0.7-0.6-1.3-0.9-1.9c-0.1,0-0.1,0-0.2,0c-0.2,0.3,0,1-0.7,0.9
			c-0.8-0.1-1.3-0.8-1.1-1.5c0.1-0.4,0.2-0.7,0.4-1c0.1-0.2,0.5-0.3,0.7-0.3c0.4,0,0.8,0.2,1.2,0.2c0.6,0,1.3-0.2,1.6,0.5
			c0.4,0.7,0.2,1.5-0.2,2.2C240.9,157.9,240.5,158.2,240.2,158.6z"/>
		<path id="path6304" class="st2" d="M88.1,177.6c0-0.1,0-0.2,0.1-0.3c0.2-0.4,0.4-0.7,0.6-1.1c0.3,0.3,0.6,0.6,0.8,0.9
			c0.4,0.8,0.1,1.6-0.5,2.1c-0.6,0.6-1.3,0.3-2,0c-1.5-0.6-2.2-1.7-1.9-3.2c0.1-0.6,0.3-1.1,1-1.1s0.9,0.6,0.9,1.2
			C87.2,176.9,87.3,177.5,88.1,177.6z"/>
		<path id="path6306" class="st2" d="M184.8,41.3c0.2-0.5,0.3-1.2,0.6-1.9s1-1,1.8-0.9s1.4,0.5,1.7,1.3c0.4,1.2,0.1,2.3-0.5,3.3
			c-0.4,0.6-1.1,1-1.8,0.7c-0.6-0.2-1.1-0.7-1.5-1.2C184.9,42.3,184.9,41.9,184.8,41.3z"/>
		<path id="path6308" class="st2" d="M71.2,146.8c0.1,0.6,0.1,1.2,0.2,1.8c0,0.6-0.2,1.1-0.9,0.8c-0.4-0.2-0.9-0.4-1.2-0.7
			c-0.6-0.6-0.8-2.9-0.2-3.6c0.3-0.3,0.8-0.6,1.2-0.5c0.3,0,0.7,0.5,0.9,0.9C71.3,145.8,71.3,146.3,71.2,146.8
			C71.3,146.8,71.2,146.8,71.2,146.8z"/>
		<path id="path6310" class="st2" d="M225,135.4c-1.4-0.1-2-0.5-1.9-1.2s0.6-1,1.2-1c0.7,0,1.5,0.8,1.4,1.4
			C225.6,135,225.2,135.3,225,135.4z"/>
		<path id="path6312" class="st2" d="M228.5,142.5c0.2-1,0.6-1.6,1.3-1.7c0.7-0.1,1.2,0.4,1.4,1.3c0.2,0.6,0.3,1.3-0.4,1.7
			c-0.4,0.2-1.1,0.3-1.4,0.1C229,143.6,228.8,143,228.5,142.5z"/>
		<path id="path6314" class="st2" d="M65.3,134c-0.5-0.3-0.9-0.5-1.2-0.7c-0.6-0.4-0.5-1-0.2-1.5c0.1-0.1,0.5-0.2,0.6-0.1
			c0.4,0.5,0.7,1,1,1.6C65.6,133.4,65.4,133.7,65.3,134z"/>
		<path id="path6316" class="st2" d="M267.2,236.1c0.2-0.2,0.5-0.4,0.7-0.6c0.1,0,0.1,0.1,0.2,0.1c-0.1,0.5-0.3,1.1-0.4,1.6
			c-0.1,0-0.2,0-0.3,0C267.4,236.8,267.3,236.4,267.2,236.1C267.2,236,267.2,236.1,267.2,236.1z"/>
		<path id="path6318" class="st2" d="M75.1,137c-0.8-0.4-1.5-1.6-1.4-2.4c0.1-0.6,0.6-0.8,1.1-0.4C75.5,134.7,75.7,135.9,75.1,137z"
			/>
		<path id="path6868" class="st3" d="M169.7,15.3c-0.1,0-0.2,0.2-0.4,0.3c-0.8,0.8-1,1.6-0.5,2.6c0.4,0.9,0.6,2,1,2.9
			c1.4,3.5,2.4,7,2.2,10.8c-0.1,0.6-0.2,0.9-0.7,1.2c-2.2,1.4-3.5,3.6-4.1,6.1c-0.4,1.8-0.6,3.7-0.2,5.4c0.5,1.8-0.2,2.9-1.3,4.1
			c-0.2,0.1-0.3,0.4-0.5,0.5c-0.4,0.2-0.8,0.5-1.2,0.5c-0.9,0-1.8-0.2-2.6,0c-1.2,0.2-2.6,0.4-3.5,1.1c-3.6,2.7-5.7,6.3-6.1,10.8
			c0,0.3-0.2,0.7-0.5,0.9c-1.3,1.2-2.8,2.3-4.2,3.4c-0.3,0.2-0.8,0.3-1.1,0.2c-2.6-0.5-5,0.1-7.2,1.6c-2.1,1.4-3.9,3.1-5.4,5.1
			c-1.3,1.7-2.5,3.6-3,5.8c-0.3,1.4-1,2.4-1.9,3.4c-2.6,3-4.9,6.1-7.4,9.1c-0.2,0.3-0.5,0.6-0.8,0.8c-2.2,1.4-4.5,2.6-6.3,4.5
			c-3.4,3.4-5,7.3-4,12.2c0.3,1.7,0.3,3.5,0.2,5.3c-0.2,2.2-0.5,4.5-0.9,6.7c-0.1,0.7-0.4,1.4-0.8,1.8c-1.9,1.6-3.2,3.6-4.1,5.8
			c-1.7,4.2-1.8,8.6-1.5,13c0.2,3,1.4,5.6,2.7,8.3c0.2,0.3,0.4,0.7,0.4,1.1c0,2-0.1,3.9-0.1,5.8c0.1,3.1,0.1,6.2,0.2,9.3
			c0.2,5,1.1,9.9,1,14.9c-0.1,3.1,0.9,6,2.6,8.6c0.2,0.4,0.4,0.9,0.5,1.3c1.7,5.6,3.3,11.3,5,16.9c0.6,2,1.4,3.8,2.1,5.6
			c-0.4,0.4-0.7,0.6-0.9,0.9c-0.6,0.9-1.3,1.8-1.8,2.8c-0.2,0.3,0,1.1,0.2,1.2c0.6,0.2,1.2,0.2,1.8,0.1c0.1,0,0.2-0.7,0.2-1.1
			c0.1-0.2-0.1-0.5,0-0.7c0.3-0.6,0.7-1.2,1-1.8c0.8,1.3,1.6,2.6,1.6,4.2c0,0.2-0.2,0.5-0.3,0.7c-0.6-2.4-0.8-2.8-1.4-2.9l-0.3,1.2
			c-0.1,0.5-0.2,1.1-0.2,1.6c0,1.1-0.3,1.5-1.4,1.7c0.2-0.5,0.5-1,0.7-1.5c-0.1,0-0.2-0.1-0.3-0.1c-0.4,0.6-0.9,1.2-1.2,1.8
			c-0.5,1.2-1.6,1.6-2.6,2.3c-0.1-0.5-0.2-0.7-0.2-1c-0.1-3.5-0.2-7.1-0.3-10.7c0-0.3-0.1-0.6-0.2-0.8l-3-6.9
			c-0.3-0.6-0.4-1.3-0.5-1.9c-0.1-1.5,0-3-0.2-4.4c-0.8-4.9-2.9-9-7.1-11.7c-1.3-0.8-1.7-2.2-2.6-3.3c-0.1-0.1,0-0.3,0-0.5
			c1.1-4.2-0.3-7.6-3.3-10.6c-1.4-1.4-2.9-1.7-4.7-1c-0.2,0.1-0.7,0.1-0.8-0.1c-0.9-1-1.7-2-2.3-2.8c0.4-0.8,0.8-1.4,0.9-2
			c0.6-4.1-1.3-7-4.6-9.2c-0.2-0.2-0.5-0.3-0.6-0.4c1.2-6.4-0.7-11.6-5.6-15.8c1.1-1.2,1.2-2.7,1.1-4.2v-0.7
			c0.2-1.8-0.4-3.5-1.8-4.6c-1.5-1.1-1.5-2.5-1.6-4v-0.3c0.2-1.3,0.2-2.7,1.3-3.7c1.1-1.1,1.7-2.5,1.4-4c-0.2-1.1-0.1-2,0.5-3
			c0.5-1,0.6-2.3,0.7-3.4c0.2-1.5,0.3-3-1-4.2c-0.2-0.2-0.1-0.5-0.2-0.7c-0.3-1.1-0.5-2.2-0.9-3.2c-1.2-2.9-4-3.7-6.7-2.1
			c-1.5,0.9-2.7,2.2-3.6,3.8c-0.3,0.6-0.7,1.2-1.2,1.6c-3.3,2.9-5.8,6.4-7.6,10.5c-0.6,1.3-1.5,2.5-2.2,3.7
			c-0.9,1.6-1.9,3.2-2.8,4.9c-0.7,1.2-1.3,2.5-1.9,3.8c-0.3,0.8-0.7,1.6-1,2.4c-1,2.7-1.9,5.4-2.7,8.2c-0.9,3.2-1.9,6.3-2.6,9.5
			c-0.6,3-0.8,6.1-1.2,9.1c-0.4,3.5-0.2,7.1,0.3,10.6c0.6,4.3,1.5,8.7,2.8,12.9c1.5,5,3.4,9.9,6.2,14.3c2.7,4.3,5.1,8.7,6.7,13.5
			c1.1,3,2.2,6,2.3,9.2c0.1,3.5,0,6.9-0.1,10.4c0,0.1-0.1,0.1-0.1,0.1c-1.2-0.7-2.3-1.5-3.5-2.1c-0.3-0.2-1-0.1-1.3,0.2
			c-0.2,0.2-0.2,0.8-0.2,1.3c0,0.2,0.3,0.5,0.4,0.8c-0.2,0.2-0.5,0.3-0.5,0.5c-0.1,0.6-0.2,1.3-0.2,1.9c0,0.1,0.5,0.3,0.8,0.4
			c1.4,0.4,2.1,2.5,1.2,3.6c-0.2,0.2-0.3,0.7-0.2,1c0.2,1.1-0.1,1.9-1,2.6l-1.2,0.9c-0.7,0.6-1,1.4-0.6,2.3c0.2,0.5,0.1,0.7-0.2,1.1
			c-0.9,0.9-1.7,2-2.6,3c-0.6,0.6-1.1,1.1-2.1,0.8c-0.8-0.2-1.7-0.1-2.5,0c-0.7,0.1-1.3,0.5-2,0.8c0.4-0.6,0.9-1.2,1.4-1.8
			c0.5-0.5,0.7-1.2,0.3-1.8c-0.3-0.4-0.9-0.8-1.4-0.9c-0.7-0.2-1.4,0.2-1.6,0.9c-0.2,0.6-0.2,1.4-0.3,2.1v1.2
			c-0.9-1.4-1.6-1.4-2.4-0.2c-0.3,0.3-0.5,0.7-0.7,1.1c-0.1,0.2-0.3,0.4-0.5,0.4c-1.3,0.1-1.5,0.7-1,1.8c0.3,0.7,0,1.4-0.8,1.5
			c-1.3,0.2-2,1.1-1.7,2.4c0.2,0.8,0.5,1.5,0.8,2.2c0.2,0.5,0.2,0.9-0.4,1.2c-0.9,0.4-1.2,1-0.8,1.9c0.3,0.7,0.8,1.3,1.2,1.9
			c0.7,0.9,1.3,1.7,1.9,2.5c-1.2,0.6-2.3,1.1-3.3,1.8c-0.7,0.4-1.2,0.2-1.7,0c0.2-0.4,0.6-0.9,0.5-1.2c-0.1-0.8-0.5-1.5-0.7-2.2
			c-0.6,0.4-1.2,0.7-2.1,1.2c-0.3,1.4-0.8,3.2-1.2,4.9h-0.3c0-0.8-0.1-1.6-0.1-2.4c-0.1-0.1-0.1-0.1-0.2-0.1
			c-0.9,1.4-1.9,2.8-2.8,4.2c-0.6-0.4-1.3-0.7-1.9-1c0.4,0.3,0.8,0.7,0.6,0.9c0.6,0.4,0.9,1,0.9,1.7c0.1,0.8-0.2,1.3-0.8,1.8
			c-1.4,1-1.4,1.1-2.9,0.2c-0.8-0.5-1.5-0.9-2.3-1.3c-0.1,0-0.1,0.1-0.1,0.1c1,0.9,2,1.8,3,2.8c-2.1,2.2-4.2,4.2-6.8,5.6
			c-1,0.5-2,1.1-2.9,1.8c-0.3,0.2-0.3,0.7-0.5,1.1c0.4,0.1,0.8,0.2,1.2,0.2c0.2,0.1,0.4-0.1,0.5-0.2c2.9-1.9,5.9-3.7,8.8-5.5
			c1.7-1,1.7-1,3.2,0.4c0.6,0.5,0.7,0.9,0.4,1.7c-0.9,2.4-2,4.9-1.4,7.6c0.1,0.2-0.1,0.5-0.1,0.7v0.7c0.2-0.1,0.5-0.2,0.6-0.4
			c0.5-0.8,0.9-1.7,1.4-2.6c0.4,0.2,0.6,0.3,0.9,0.4c-0.8,1.2-1.8,2.4-2.5,3.7c-0.8,1.4-1.5,2.9-2,4.5c-0.4,1.1,0.4,1.7,1.5,1.5
			c0.7-0.2,1.4-0.4,2-0.8c1.5-0.9,2.9-2,4.4-3c0.3-0.2,0.5-0.4,0.8-0.6c0,0.3,0,0.5-0.1,0.6c-1,1.7-2.2,3.3-3.2,5
			c-0.6,0.9-1,1.9-1.4,2.8c-0.1,0.2,0.1,0.5,0.2,0.7c0,0.1,0.4,0,0.5-0.1c0.6-0.5,1.1-1.1,1.7-1.6c3.2-2.9,6-6.2,8.3-9.8
			c0.4-0.7,0.9-1,1.7-1.1v4.1c-1.4,0.2-2.5,0.8-3.5,1.8c-1.4,1.4-2.8,2.8-4.1,4.3c-0.3,0.4-0.6,0.9-0.9,1.3c0.3,0.1,0.5,0.1,0.6,0
			c1-0.8,2-1.6,3-2.3c0.9-0.8,1.9-1.6,3-2.2c1.2-0.7,1.9-0.2,2,1.2c0.1,1.3-0.4,2.3-1,3.4c-0.7,1.2-1.2,2.6-1.7,3.9
			c0.1,0,0.1,0.1,0.2,0.1c0.8-0.4,1.7-0.7,2.4-1.2s1.4-1.2,2.1-1.8c0.2,0.4,0.3,0.7,0.4,1c0.5,1,0.9,2.1,1.3,3.1l0.1-4.7l-0.8-3
			v-3.4l1.3-5.5l-0.4-3.4v-5.9l5.9-10.1l6.8-18.2l5.9-12.2l1.3-3.4l0.8-7.2l-0.4-5.5l-0.4-7.6l-1.7-4.2l-2.5-6.3l-5.9-14.4l-2.1-4.2
			l-4.2-8.9l-1.7-6.8c-4.5-6-1.6-15.7,0.4-24.9l6.3-21.5l14.4-17.7l2.1-3l2.1-1.3l3.8,4.2c0,0,0.8,0.4,0.8,2.1c0,0.5,0,1.2-0.1,1.8
			c0,0.2,0,0.5,0,0.8v0.3c0,0.6-0.1,1-0.3,1.2c0,0.3-0.1,1-0.1,1l-0.8,4.2l-0.4,0.6c-0.1,0.2-0.2,0.4-0.4,0.7c0,0-0.1,0.1-0.1,0.1
			l-2,2.8l-0.8,4.6l3.8,3.8l1.3,0.8l-2.1,7.2l5.9,5.9l-0.2,2.6c0.1,0.4,0,0.9-0.1,1.4c0,0,0,0.1,0,0.1l-0.1,0.6l-0.4,3l3.4,3.4
			l2.1,3.8l0.1,0.5c0.4,1,0.7,2.1,0.5,3.5c-0.1-0.1-0.2-0.3-0.2-0.4l0.1,0.6l-0.8,1.7c0,0,0,1.7,1.7,2.1s2.1,3.4,2.1,3.4l4.6,0.4
			l3,2.1v1.7l-0.8,1.7l0.4,2.1v1.7v2.1l1.3,0.8l2.1,2.5l4.6,3l1.3,3.4l-0.8,7.6l-0.4,3.4l1.3,2.5l3.4,2.1l0.8,5.5v4.2l-0.8,5.9
			l-0.4,5.9l1.7,3.8l-2.1,15.6l0.8,10.6l1.7,3.8l0.4,6.8l-0.8,9.3l7.6,11l8.4-10.6l8.9-3.8l9.3-14.4l-0.4-12.7l-12.2-20.7l-8.4-14.4
			l-7.2-12.2l-5.9-23.7l-1.3-13.5l0.4-14.8v-3.4l-4.2-4.2l0.4-11l4.2-7.2l4.6-3.4l0.8-5.9l-1.3-4.6l-1.7-2.1l-0.4-4.6l0.4-4.2
			l4.2-3.4l4.2-2.5l4.6-2.5l3.8-6.3l1.7-2.5l1.7-3.8l1.3-3.4c0.4-3.4,2.7-4.2,5.5-5.9l3.4-0.4l8-0.8l1.3-2.5l0.8-2.5l0.4-0.4
			l0.4-4.6c0.5-1.5,1.2-2.6,1.6-4.1l2.1-2.2c3.2-2,5.8-1.5,9.4-1.2l3.4-0.4l0.8-2.1l-0.8-3c-3-4.4-1.2-5.8,1.3-10.1l1.7-0.8l2.5-1.7
			l-0.4-2.1c-2.9-4.6-3.3-8.5-2.6-13.6c1.7-1.9,5.5,2.4,7.3,3.5l8.4,3.4l5.1,8.4l5.1,16l-0.8,8.9l-3.4,11.4
			c-5.7,12.7-12.5,24.4-21.5,33.8l-7.2,11.4c-11.6,15.4,4.2,41.6,9.3,57.4l13.1,23.2l5.9,22.8l5.1,9.7l9.3,26.6l-5.9-22.8l-2.1-13.5
			l0.8-11.8l2.1-11l3-11.8l8.4-18.2l6.3-8.9l3.8-5.9l1.7-3.8l1.3-2.1l-0.8-3.8l-0.8-3.4l-1.3,1.3l-1.7,0.8l-1.7,0.4l-3.8-0.8
			l-1.3-1.3l-0.8-0.8V136l-5.5-1.3l-0.8-1.3l-0.8-2.1l1.3-3l2.1-2.5l0.8-2.5l3.8-2.1l4.2-3l6.8,0.4l11.8,1.7l9.3,3.4l9.3,8l4.2,7.2
			l1.3,7.2v6.8l-2.1,7.2l-3.4,5.9l-1.7,3.4l-0.4,1.7l-0.4,2.1l-0.8,3.4l-0.8,0.7c-0.5,0.6-1.2,1.1-1.9,1.6c-0.1,0.1-0.3,0.2-0.5,0.2
			l-1.9,1.3l-2.1,1.7l0.4,2.1V196l0.4,10.1l3.4,8.9l3.4,9.7l2.1,9.3v7.6l6.3,11l3.4,10.6l-0.4,8.9l-3.4,12.2l-2.5,12.7
			c0,0,0.1-0.1,0.1-0.1c1.4-1.7,2.7-3.4,4.1-4.9c1.8-1.9,3.9-3.7,5.7-5.7c1-1.1,2-1.7,3.4-0.9l0.1,0.1c-0.3,1.9-0.6,3.7-1,5.8
			c-1.3-0.7-2.4-1.3-3.7-2c0.2,1.8,1.5,3.4,2.8,3.4c0.7,0,1.7-0.1,2.2-0.5c0.6-0.4,0.8-1.3,1.1-2c2.9,0.9,8.5-3.3,10.3-6.2
			c-1.7,0.6-3.2,1-4.8,1.5c0.8-1.1,1.6-2.1,2.3-3.2c3.2-4.8,6.3-9.8,10.6-13.8c0.3-0.3,0.5-0.6,0.7-1c0.5-1.1-0.3-2.1-1.4-2.1
			c-0.3,0-0.6,0.1-0.9,0.1c-0.3-0.8-0.9-1.4-1.9-1.3c-1.1,0.2-1.7,0.8-2.1,1.8c0,0.2-0.3,0.4-0.5,0.5c-1.4,0.8-2.8,1.6-4.1,2.4
			c-1.5,0.9-3,1.9-4.5,2.8c-0.2-0.4-0.4-0.8-0.5-1.2c1-2.4,2.8-3.9,5.4-4.4c1.2-0.2,2.4-0.6,3.6-1c0.3-0.1,0.5-0.5,0.7-0.8
			c-0.4-0.2-0.7-0.4-1-0.5s-0.5,0-0.8,0.1c-1.4,0.3-2.8,0.7-4.2,1c0.6-1.1,1.1-2.1,1.5-3.1c0.3-0.8,0.6-1.4,1-2.1
			c0.4-0.6,0.5-1.5,0.5-2.3c0-0.4,0.1-0.6,0.5-0.9c1.3-0.9,2.6-1.8,3.8-2.7c0.4-0.3,0.8-0.7,0.9-1.1s0-0.9-0.2-1.2
			c-0.1-0.2-0.7-0.2-1-0.1c-1.7,1-3.4,2-5.1,3.1c-0.2,0.1-0.4,0.3-0.6,0.4c0.5-2.2,1-4.3,1.5-6.4c-0.1,0-0.2-0.1-0.3-0.1
			c-1.5,2.3-2.2,4.9-3.1,7.4c-1.6-0.4-3.4-2.5-3.3-4.1c0-0.6,0.4-1.2,0.8-1.7c0.2-0.3,0.7-0.5,1-0.8c1-0.9,1.9-1.7,2.8-2.5
			c-0.1-0.1-0.1-0.2-0.2-0.3c-0.9,0.5-1.9,1-3,1.6c0-0.3,0.1-0.6,0.1-0.8c0-0.5,0-1-0.1-1.5c-0.3-0.9-0.8-1-1.5-0.3
			c-0.3,0.3-0.6,0.8-0.8,1c-2-1.1-3.3,0.5-5,0.8c-0.1-0.5-0.3-1.1-0.3-1.6c0.1-1.2-0.7-2.5,0.6-3.4c0.1-0.1,0.1-0.3,0.1-0.5
			c-0.1-0.6-0.7-1-1.5-0.9c-0.2,0.1-0.5,0.1-0.7,0c-0.3-0.1-0.5-0.2-0.9-0.4c-0.4-1.2-0.4-1.2,0.7-2c0.6-0.5,1.1-1,1.7-1.4
			c0.7-0.5,1.3-1,2.1-1.5c0,2.6-0.3,5.1,0.8,7.4c0.5-0.3,1-0.6,1.4-0.9c0.3-0.3,0.6-0.7,0.7-1.1c0.1-0.1-0.5-0.4-0.8-0.6
			c0.1-0.2,0.1-0.4,0.1-0.7h0.6c-0.2-0.4-0.7-0.8-0.6-1.2c0.3-2.5-0.7-4.3-2.8-5.5c-0.1,0-0.2-0.1-0.3-0.2c-0.3-0.3-0.9-0.5-0.6-1.1
			c0,0-0.4-0.3-0.6-0.4l-1.2-0.3c-0.2-0.1-0.5-0.3-0.7-0.2c-1.1,0.4-2.2,1-2.7,2.2c-0.1,0.2-0.2,0.3-0.4,0.6
			c-0.3-0.5-0.5-0.9-0.7-1.4c-0.4,0.6-0.5,1.2-0.2,1.8c0.7,1.4,0.2,3.5-1.1,4.5c-0.7,0.5-1.3,0.9-2,1.4s-1.4,0.9-2.3,0.4
			c-0.6-0.4-0.6-1.3-0.1-2.4c0.7-1.4,1.5-2.7,2.2-4.1c0.5-0.8,0.9-1.7,1.4-2.7c-0.9,0.3-1.6,0.4-2.3,0.6c0.5-1.6,2-1.7,3.1-2.5
			c-0.4-0.5-0.7-1.1-1-1.6c0-0.1,0.1-0.1,0.1-0.2c1.1,0.5,2.1,0.9,3.1,1.3c-0.1-0.1-0.1-0.2-0.1-0.2c-0.2-0.1-0.3-0.2-0.4-0.2
			c-1.5-0.3-2.2-1.4-2.8-2.6c-0.1-0.3-0.4-0.6-0.5-0.9c-0.3-0.5-0.7-1-0.2-1.6c0.4-0.7,0.9-1.3,1.8-1c0.2,0,0.5,0.1,0.7,0
			c0.4-0.1,0.8-0.3,0.9-0.6s-0.1-0.7-0.2-1.1c0-0.2-0.3-0.3-0.5-0.5l0.9-0.9c0.2,0.3,0.3,0.4,0.4,0.6c1.4,1.8,2.7,3.7,4.1,5.5
			c0.5,0.7,1.1,1.3,1.7,1.9c0.2,0.2,0.5,0.3,0.7,0.4c0-0.2,0.1-0.6,0-0.8c-1.1-1.4-2.3-2.9-3.5-4.3c-1-1.2-2-2.4-2.9-3.5
			c0.5-0.9,0.9-1.5,1.2-2.1c0.1-0.2,0-0.5,0-0.8c-0.3,0.1-0.6,0.1-0.8,0.2c-0.3,0.2-0.6,0.5-0.7,0.6c-1.1-0.5-2.1-1-3.3-1.5
			c-0.1,0.6-0.4,1.2-0.4,1.8c-0.1,1,0.7,1.6,1.7,2c-0.4,0.3-0.7,0.6-0.9,0.6c-1.3-0.1-2.4,0.3-3.5,0.8c-0.4,0.2-0.9,0.2-1.4,0.2
			c-0.8,0-1-0.3-0.9-1.1c0.1-0.6,0.1-1.3,0.2-2c-0.1,0-0.3-0.1-0.4-0.1c-0.2,0.6-0.5,1.3-0.6,1.9c-0.1,1.2,0.3,1.7,1.6,1.7
			c0.5,0,1-0.1,1.5-0.1v2.7c-0.3-0.2-0.6-0.4-1-0.6c0,0.5,0,1,0.1,1.4c0.5,2.5,1,5,1.4,7.6c0.1,0.9,0,1.8-0.1,2.7
			c-0.1,0.2-0.5,0.3-0.7,0.5c0-0.3-0.2-0.5-0.2-0.8s0.1-0.6,0-0.9c-0.2-1.1-0.5-2.1-0.7-3.1c-0.5-2.7-1-5.3-1.4-8
			c-0.1-0.8-0.2-1.5-0.9-2.1c-0.4-0.3-0.7-0.8-1-1.2c3.9-4,7.4-8.3,7.4-9.2c-3.4,1.9-5.7,4.9-8.1,8c-0.6-1.1-1.1-2.1-1.6-3.1
			c1-0.7,1.9-1.4,2.8-2.2c0.6-0.5,0.6-0.9,0.1-1.4c-0.9,0.8-1.8,1.6-2.8,2.5c-0.2-0.6-0.4-1-0.5-1.4c0.3-0.1,0.5-0.2,0.8-0.3
			c-0.2-0.1-0.4-0.1-0.6-0.1c-0.9,0.1-1.3-0.2-1.6-1c-0.5-1.5-1.3-3-1.8-4.6c-0.6-1.8-1-3.7-1-5.6c0-3.2,0-6.4,0.2-9.5
			c0.2-2.4,0.7-4.8,1.2-7.2c0.1-0.5,0.5-0.9,0.9-1.3c1.7-1.6,3.3-3.2,4.4-5.2c0.9-1.7,1.5-3.3,0.7-5.2c0-0.1,0.1-0.4,0.2-0.6
			l2.4-3.6c2.4-3.5,4.3-7.2,5.8-11.1c1.1-2.8,1.1-5.7,1.2-8.6c0.1-4.4-1-8.5-2.8-12.4c-1.9-4.1-4.8-7.7-8-10.9
			c-2.7-2.7-5.8-4.6-9.5-5.3c-0.9-0.1-1.8-0.1-2.6-0.3c-1.8-0.4-3.5-1-5.3-1.4c-1.7-0.4-3.4-0.8-5.1-1.1c-3.9-0.6-7.8-0.4-11.7,0.2
			c-3.4,0.5-6.5,2-9,4.5c-2.3,2.4-4.3,4.9-5.7,7.9c-1.5,3,0,6.1,3.3,6.6c1.3,0.2,2.5,0.4,3.8,0.6c0.1,0,0.4,0.1,0.5,0.2
			c0.8,0.7,1.5,1.5,2.3,2.1c0.8,0.5,1.6,1,2.5,1.3c2.1,0.7,4.1,1,6.2-0.1c0.2-0.1,0.8,0.2,1.1,0.4c0.2,0.2,0.3,0.6,0.2,0.9
			c-0.2,0.8-0.5,1.6-0.7,2.4c-0.8,2.8-2.1,5.2-4.2,7.3c-4.1,4.2-7.9,8.6-10.5,13.9c-0.2,0.2-0.4,0.5-0.7,0.6
			c-0.8,0.4-1.6,0.7-2.4,1.1c-0.2,0.1-0.3,0.3-0.5,0.4c0,0.1,0.1,0.1,0.1,0.2c0.7-0.3,1.5-0.5,2.2-0.7c0,0.1,0.1,0.1,0.1,0.2
			c-0.2,0.4-0.2,0.8-0.5,1c-0.2,0.2-0.8,0.5-0.9,0.4c-0.5-0.4-0.8-0.1-1.2,0.1c-1.1,0.4-1.8,1.2-2,2.5c-0.1,0.5-0.2,1-0.3,1.4
			l-0.3,0.9c0-0.1-0.1-0.1-0.2-0.1v-3.3c-1.4,0.9-1.4,2.3-2.1,3.5c0.5-0.2,0.8-0.3,0.9-0.3c0.4,0.6,0.8,1.1,1.3,1.7
			c-0.9,0.6-1.8,1.2-2.8,1.8c-0.3,0.2-0.5,0.4-0.6,0.7c-0.9,1.6-1.7,3.3-2.5,4.9c-0.1,0.2-0.2,0.4-0.2,0.6c0.1,0.8,0.2,1.5,0.4,2.3
			c0,0.2,0.3,0.5,0.4,0.5c0.2,0,0.5-0.2,0.6-0.4s0.1-0.5,0.1-0.8c0-0.8-0.2-1.5-0.2-2.3c0-0.2,0.1-0.5,0.2-0.7
			c0.3-0.4,0.8-0.7,1.2-1.1c0.2,0.7,0.2,1.3,0.5,1.8c1,1.6,1,3.2,0.3,5c-0.6,1.6-0.9,3.2-1.4,4.8c-0.9-0.4-1.7-0.8-2.5-1.2
			c0.7-1.1,1.3-2.1,1.8-3.1c0.1-0.3,0-0.6,0-0.9c-0.2,0-0.5,0.1-0.8,0.2s-0.5,0.3-0.8,0.6c-0.1-0.9-0.6-1.3-1.4-1.3
			c0-0.2-0.1-0.4-0.1-0.7c-1.2,0.9-0.2,2.2-1,3.4c-0.2-0.7-0.3-1.2-0.4-1.7c-1.2,0.1-1.7-0.3-1.2-1.3s0.3-1.7-0.4-2.4
			c-0.2-0.2-0.3-0.5-0.5-0.7c-0.4-0.4-0.5-0.7-0.3-1.2c0.3-0.8-0.1-1.6-0.8-1.9c-0.9-0.4-2.3,0.1-2.7,1.1c-0.5,1.2,0,2.1,1.2,2.3
			c0.1,0,0.3,0.1,0.4,0.2c0.4,0.9,0.7,1.8,1.1,2.7c-1.5,0.7-3.5,0.4-3.8,2.6c-0.9-1.3-0.8-1.2,0.1-2.2c0.7-0.7,1.5-1.6,2.2-2.4
			l-0.1-0.1c-1.2,0.8-2.3,1.6-3.5,2.4c-0.7-0.8-1.1-1.6-0.5-2.6c0.4-0.6-0.1-1.1-0.8-1.1c-0.2,0-0.4,0.1-0.7,0.1
			c-1.1-2-2.1-4-3.2-6.1c0.9-0.2,1.5-0.8,1.5-1.7s-0.1-1.8-0.3-2.6c-0.1-0.7-0.6-1.4-1.5-1.4s-1.3,0.6-1.6,1.3
			c0,0.1-0.1,0.2-0.2,0.5c-0.4-0.7-0.6-1.3-0.8-1.6c0.7-0.9,1.4-1.7,1.9-2.6c0.4-0.7,0.8-1.4,1.1-2.2c0.2-0.5,0.2-1.1-0.4-1.5
			s-1.1-0.1-1.5,0.3c-0.4,0.4-0.8,0.8-1,1.3c-0.4,0.9-0.7,1.9-1.1,2.9c-0.2-0.3-0.3-0.6-0.5-0.9c-2-3.8-4-7.7-6-11.6
			c-1.3-2.7-2.7-5.3-3.1-8.3c-0.1-1.2-0.5-2.4-0.8-3.6c-1.9-6.4-3.3-13-3.1-19.8c0-0.5,0-1.1,0.3-1.6c2.1-3.8,4.1-7.7,6.4-11.4
			c1.9-3.1,4-6.1,6.1-9c2.4-3.3,4.9-6.6,7.3-10c1.6-2.2,3.2-4.4,4.6-6.7c1.3-2,2.4-4.1,3.6-6.2c2.8-5,5.2-10.3,6.9-15.8
			c1.6-5,2.3-10.1,2-15.4c-0.3-4.5-0.6-8.9-2.1-13.2c-1.4-4.2-3.7-7.7-6.6-10.9c-3.1-3.4-6.9-5.9-11.1-7.8c-3.1-1.4-6.3-1.9-9.7-1.8
			h-2C169.8,15.3,169.7,15.2,169.7,15.3z M208.4,170c-0.4,1.8-0.5,2-2.9,1.8C206.6,171.1,207.5,170.6,208.4,170z M205.8,176.2
			c-0.7,1.7-1.3,3.2-1.9,4.7C202.8,178.9,203.3,177.8,205.8,176.2z M192,187.1c0.1,0.5,0.2,1,0.3,1.4c-0.6,0-1.1-0.1-1.5,0.1
			c-0.3,0.2-0.4,0.8-0.7,1.2c-0.2,0.3-0.6,0.6-1,0.9c-0.2-0.4-0.5-0.7-0.7-1.1C190.1,189.5,190.6,187.7,192,187.1L192,187.1z
			 M196.3,193.4c1.2,0.2,2.4,0.4,3.7,0.7c-0.1,0.3-0.2,0.8-0.4,1.4c-1.1-0.9-2.2-0.4-3.2,0c-1.1,0.4-2.1,1-3.1,1.5l-0.1-0.1
			c0.8-1.1,1.7-2.3,2.6-3.4C195.9,193.4,196.1,193.4,196.3,193.4L196.3,193.4z M197.9,196.5v1c-0.7,0-1.3,0.1-1.9,0.1
			c-0.1,0-0.1-0.1-0.1-0.1L197.9,196.5z M195,198.1c0,0,0.1,0.1,0.2,0.1c-0.2,0.9-0.3,1.7-0.5,2.5h-0.4c-0.3-0.6-0.6-1.1-0.8-1.8
			C194,198.6,194.5,198.4,195,198.1L195,198.1z M197.3,200.7c0.1,0,0.2,0,0.3,0c0.1,1.5,0,1.7-1.2,1.8
			C196.3,201.3,196.5,200.7,197.3,200.7L197.3,200.7z M196.8,205.1c0.7,0,0.9,0.5,0.5,1.8c-0.3-0.7-0.5-1.3-0.8-1.8
			C196.5,205.1,196.7,205.1,196.8,205.1L196.8,205.1z M120,219.3c2,1.8,3,4.2,4.6,6.5c-1.3-0.8-2.3-1.5-3.3-2.1
			c-0.3-0.1-0.7-0.3-1.1-0.2c-0.7,0.1-0.6-0.2-0.6-0.7s0.1-1-0.1-1.4C119,220.5,119.4,220,120,219.3z M119.4,225.4h0.2
			c0.1,0.6,0.3,1.3,0.3,2c-0.1,2.4-0.2,4.9-0.4,7.3c-0.1,1.5-0.3,3.1-0.4,4.7h-2.6c0.1-1,0.1-1.9,1-2.6c0.3-0.2,0.3-0.7,0.3-1
			c-0.1-3.1,0.7-6,1.3-9C119.2,226.4,119.3,225.9,119.4,225.4z M112.7,226c0.3,0.1,0.6,0.1,0.6,0c0.1,0.8,0.1,1.4,0.3,2
			c0,0.1,0.7,0,1.2-0.1c-0.1,0.7-0.3,1.4-0.4,2.1s-0.3,1.4-0.4,2.1c-1.4-0.3-1.4-0.3-1.4-1.6v-4.3
			C112.6,226.2,112.6,226.1,112.7,226L112.7,226z M124.1,227.2c0.5,0.3,0.8,0.5,1.1,0.7c-0.2,1.1-0.2,2.2-0.5,3.2
			c-0.4,1.5-1,3-1.6,4.4c-0.5,1.1-1.1,2.2-0.3,3.4c-0.5,0.3-0.8,0.4-1.2,0.8c0.2-0.5,0.2-0.9,0.3-1.2c0.5-3.2,1-6.3,1.5-9.4
			C123.5,228.5,123.8,227.9,124.1,227.2z M115.7,228.5c0.1,0.1,0.1,0.1,0.2,0.1c-0.1,0.6,0.3,1.2-0.6,1.6
			C115.4,229.7,115.5,229.1,115.7,228.5z M57.9,230.5c1.3,0.5,2.5,1.1,3.9,1.8c-0.2,1.6-0.3,3.4-0.6,5.2c-0.2,1.2-0.6,2.4-1,3.6
			c-0.1,0.3-0.4,0.4-0.6,0.6c0.2-1.1,0.3-2.1,0.5-3.1l0.6-2.4c0.5-2.3-0.7-3.8-2.4-5c-0.2-0.2-0.4-0.3-0.6-0.5L57.9,230.5z
			 M115.1,231c0.9,0.6,0.1,1.3,0.3,2C114.1,232.3,115.3,231.6,115.1,231z M271.3,232.8c0.9,0,1.4,0.6,2.4,2.1
			c-0.9,0.5-1.9,1-2.8,1.5c-0.6,0.3-1.2,0.5-1.7,0.9c-0.8,0.5-1.5,0.5-2.3,0.1c0.1-0.5,0.2-0.9,0.3-1.4v-0.2
			c0.2-1.9-0.1-1.6,1.8-2.4c0,0,0.1-0.1,0.2-0.1C270.1,233,270.7,232.8,271.3,232.8z M112.3,233.1c1.4,0,1.6,0.1,1.4,1.2
			c0,0.3,0,0.5-0.1,0.8c0,0.2-0.1,0.5-0.2,0.9c-0.1-0.6-0.1-1.1-0.4-1.7C112.9,233.9,112.6,233.6,112.3,233.1z M114.3,233.8
			c1.1,0.2,1.2,0.4,0.7,1.2c-0.2,0.3-0.4,0.7-0.5,1.1c-0.3,1-0.5,2-0.6,3.1c0.2-0.6,0.5-1.2,0.8-2c0.1,2-0.2,2.6-1.4,2.7
			C112.9,237.7,114,235.8,114.3,233.8z M127.7,234.1c0.5,0,1.1,0.3,1.5,1c-0.6,0.4-1.2,0.7-1.8,1.1c-0.8-1-0.8-1.5-0.2-1.9
			C127.4,234.2,127.5,234.1,127.7,234.1z M123.7,236.5c0.2,0.2,0.4,0.3,0.4,0.5c0.2,0.8,0,1.4-1.1,1.6c0.1-0.6,0.2-1.2,0.3-1.7
			C123.4,236.7,123.6,236.6,123.7,236.5z M129.9,237.1c0.1,1.6,0.8,3.1-0.5,4.5c-0.6,0.6-1.1,1.3-1.7,2.1c-0.1-1-0.2-1.8-0.4-2.8
			c-0.6,0-1.1-0.1-1.6-0.1v-0.3c0.4-0.2,0.7-0.5,1-0.8c0.2-0.3,0.4-0.7,0.6-1c0.1-0.2,0.2-0.4,0.4-0.5
			C128.4,237.8,129.1,237.5,129.9,237.1z M115.3,241.2c0.2,0,0.5,0,0.9,0.2c-0.4,0.5-0.8,1.1-1.2,1.7l-0.7-0.7
			C114.8,241.6,114.9,241.3,115.3,241.2z M117.2,241.6c0.4,0.1,0.7,0.2,1.3,0.4l-0.8,0.4l0.2,0.2c0.1-0.1,0.3-0.2,0.4-0.2
			c0.3-0.1,0.6-0.1,0.9-0.1c0,0.2,0.1,0.6,0,0.8c-1.1,1.6-1.9,3.3-1.5,5.4s-0.3,4.2-1.2,6.1c-0.1,0.1-0.2,0.4-0.3,0.5l-0.9,0.6
			c0-0.4-0.1-0.8,0-1.1c0.9-1.7,0.5-3.5,0.5-5.3c0-0.2-0.2-0.3-0.2-0.3c0-0.6,0-1.1-0.1-1.4c-0.1-0.7-0.1-1.3,0.6-1.7
			c0.2-0.1,0.3-0.5,0.4-0.8C116.8,244,117,242.8,117.2,241.6z M113,241.8c1,0.3,0.5,0.9,0.5,1.4c0.2-0.2,0.3-0.3,0.7-0.5
			c0.2,0.3,0.4,0.5,0.6,0.8c-0.2,0.1-0.4,0.2-0.6,0.2c-0.3,0-0.9,0.2-0.7-0.5c-0.2,0.2-0.5,0.4-0.7,0.6l-0.2-0.2
			C112.7,243,112.9,242.4,113,241.8z M134.6,241.8c1,0,1.8,0.8,1.8,1.7c0,0.8-0.7,1.4-1.7,1.4c-1.1-0.1-1.7-0.7-1.7-1.6
			C133,242.4,133.7,241.8,134.6,241.8z M130.7,242.9c0,0,0.1,0.1,0.2,0.1c0,0.3,0.1,0.6,0.2,1c-0.4,0-0.7,0.1-1.2,0.1
			C130.2,243.6,130.5,243.3,130.7,242.9L130.7,242.9z M119.8,243.2c0,0.3,0.2,0.6,0.3,1.1c0,0-0.3,0.1-0.5,0.2
			c-0.1-0.4-0.1-0.8-0.2-1.2C119.5,243.2,119.7,243.2,119.8,243.2L119.8,243.2z M122.6,244c0.6,0.4,1.3,0.7,1.9,1.1
			c0.2,0.1,0.3,0.5,0.2,0.7c-0.3,1.5-0.8,3-1.2,4.5c-1-0.1-1.1-0.6-1.2-1.1v-5.1C122.4,244.1,122.5,244,122.6,244L122.6,244z
			 M131.3,245.3v1.6c0.1,1,0.2,2,0.2,3c0,0.3,0.1,0.7,0,1s-0.3,0.5-0.5,0.7c-0.3-0.3-0.8-0.5-0.8-0.8c-0.1-0.8,0.1-1.7-0.9-2.1
			c0.2-1-1-1.9-0.3-2.9C129.7,245.6,130.4,245.5,131.3,245.3z M265.4,245.9c0.3,0.7,0.5,1.2,0.7,1.7
			C265.3,247.4,265.1,246.9,265.4,245.9z M57.8,246.3l0.2,0.2l-1.5,2.7c-0.9-0.6-1.5,0-2.1,0.6c-0.5,0.5-1.1,0.9-1.7,1.3
			c-0.3-0.5-0.5-0.9-0.8-1.5c0.5-0.2,1.1-0.4,1.6-0.7c1.2-0.6,2.4-1.3,3.6-2C57.4,246.7,57.6,246.5,57.8,246.3z M134.4,247.1
			c0.1,0,0.1,0,0.2,0c0.4,0.2,0.9,0.6,0.9,0.9c-0.1,1.2,0.8,1.5,1.5,2l0.9,0.6c0.2-0.2,0.5-0.4,0.6-0.4c0.4,0.1,1,0.1,1.2,0.4
			c0.2,0.3,0,1-0.2,1.2c-0.3,0.2-1.1,0.2-1.2,0c-0.7-1.1-2-1.3-2.9-2c-0.4-0.3-0.9-0.6-1.2-1c-0.2-0.3-0.3-0.8-0.3-1.3
			C133.8,247.3,134.2,247.1,134.4,247.1z M271.4,250.2c0.8,0.9,0.7,1.1-0.3,2.1C271.2,251.6,270.9,250.9,271.4,250.2z M45.6,250.7
			c1.4,0.5,2.7,0.8,4,1.3c0.4,0.2,0.6,0.7,0.9,1.1c0.5,0.8,1.3,0.8,1.5,0c0.5-1.4,1.3-1.6,2.5-1.3c0.1,0.1,0.3,0.1,0.6,0.1
			c-0.6,0.9-0.7,2.1-2.1,2.2c-0.2,0-0.4,0.2-0.5,0.3c-0.9,0.8-1.7,1.6-2.6,2.4c-0.6-0.2-0.9-0.4-1.4-0.6c0-0.9-0.2-1.7-1.2-1.9
			c-1-0.3-1.8,0.3-2.3,1.1c-0.4,0.5-0.9,1-0.5,1.8c0.2,0.4-0.2,0.5-0.6,0.3c-1.6-0.8-2.2-2.5-1.3-4.1c0.4-0.8,0.9-1.6,1.3-2.4
			C44.9,251.5,44.9,251.5,45.6,250.7z M277.7,252.9c0.9,1.6,2.1,2.7,3.6,3.5c0.1,0.1,0.2,0.3,0.2,0.5c0.1,0.4,0.1,0.8,0.2,1.2
			c-1.1-0.1-1.8-0.9-2.7-1.4c-0.1,0-0.1-0.2-0.1-0.3c0-1.5-0.2-1.7-1.7-1.7C277.4,254,277.6,253.4,277.7,252.9z M267.3,253.3
			c0.1,0,0.2,0.1,0.3,0.1c-0.1,1.4,0.5,2.8-0.4,4c-0.2-1-0.5-2-0.6-3C266.6,254.1,267.1,253.7,267.3,253.3z M272.8,253.7
			c0.3,0,0.7,0.1,0.9,0.2c0.4,0.3,0.1,0.6-0.2,0.9c-0.8,0.7-1.6,1.3-2.5,2c-0.3-1.5,0.8-2.2,1.6-3.1
			C272.6,253.8,272.7,253.7,272.8,253.7L272.8,253.7z M121,255.2l0.2,0.2c-1.9,2.1-3.8,4.1-5.8,6.3c0-0.1-0.1-0.1-0.2-0.2
			c0.3-0.5,0.5-0.9,0.8-1.3c1.1-1.2,2.2-2.3,3.3-3.4c0.3-0.4,0.5-0.8,0.8-1.1C120.3,255.5,120.7,255.4,121,255.2z M273.8,255.3
			c0.1,0.8,0.2,1.4,0.2,2.1c0,0.2-0.2,0.4-0.3,0.5c-1.2,1.1-2.5,2.2-3.7,3.3C270,258.4,271.8,256.8,273.8,255.3z M278,259.3
			c0.2,0,0.5,0,0.7,0.2c0.8,0.4,1.6,1,2.5,1.5c-0.2,0.2-0.3,0.5-0.6,0.9c-0.5-0.7-1-0.4-1.1,0.1c-1,1.2-2,2.5-3,3.7
			c-0.4,0.5-1,0.8-1.5,1.1c-0.7,0.3-1.5,0.5-2.5,0.9c0.5-0.8,1-1.4,1.4-2c1.3-1.9,2.8-3.7,3.6-5.9
			C277.6,259.5,277.8,259.3,278,259.3z M44.3,262.4c0.5-0.1,1,0.1,1.6,0.4c-0.3,0.9-1.7,1.3-3.8,1C42.7,263,43.5,262.5,44.3,262.4z
			 M47.8,262.8c0.4,0,0.9,0.1,1.4,0.1c0.1,1.6-0.6,2-1.6,2.1c-0.6,0.1-1.2,0.4-2,0.7c0-0.3,0-0.5,0.1-0.6c0.6-0.8,1.1-1.6,1.8-2.2
			C47.6,262.8,47.7,262.8,47.8,262.8z M46,269.1c0.4,0.1,0.7,0.1,1.1,0.2c-0.1,1,0.1,2-1.4,2.4C45.8,270.7,45.9,269.9,46,269.1z
			 M43,271.1c0.4,0.7,0.7,1.4,1.1,2l-0.3,0.3c-0.7-0.4-1.3-0.8-2-1.2C42.2,271.8,42.5,271.5,43,271.1z M269.8,272h3.5
			c-0.6,1.4-0.7,1.4-2.1,1.3c-0.7-0.1-1.5-0.3-2.3-0.5c-0.1-0.1-0.1-0.2-0.1-0.3C269.1,272.3,269.4,272,269.8,272z M268.4,273.5
			c1,0.4,2.1,0.8,3.3,1.2c-0.7,1.1-1.4,2.1-2.2,3.3l-0.7-0.7c0.5-0.5,0.9-0.8,1.3-1.2c-0.1,0-0.1-0.1-0.1-0.1c-0.2,0-0.4,0-0.5,0.1
			c-0.7,0.4-1.4,0.7-2-0.2c-0.2-0.2-0.6-0.2-0.9-0.3c0.3,0.4,0.7,0.8,1.1,1.3c-0.5,0.3-1,0.5-1.6,0.8c0.2-0.8,0.4-1.5,0.5-2.1
			C267.1,274.9,267.6,274.2,268.4,273.5z M39.1,274.7c0.5,0.3,0.9,0.7,1.2,0.9c-0.3,0.9-0.5,1.6-0.7,2.3c0.5-0.3,1-0.5,1.4-0.9
			c0.1,0.3,0.3,0.6,0.4,0.8c-0.6,1-1.2,0.1-1.8,0.1c-0.6-0.6-1.1-1.2-1.8-1.9L39.1,274.7z M268.2,277.5c0.9,0.7,1,0.8,0.3,1.7
			c-1.1,1.5-1.8,3.3-3.4,4.4c-0.1,0.1-0.2,0.3-0.2,0.4c0.2,1.3-1,1.8-1.5,2.8c0.7-2.4,1.4-4.8,2.1-7.1c0.1-0.2,0.3-0.4,0.5-0.6
			C266.7,278.6,267.5,278,268.2,277.5z M30.1,278.1c0.1,0.7,0.7,1.3-0.1,2c-0.5-0.4-0.9-0.8-1.5-1.3c0.5-0.2,0.8-0.4,1.2-0.6
			C29.8,278.2,29.9,278.1,30.1,278.1z M35.4,278.6c1,0.7,2,1.3,2.7,1.8c-1.2,1.4-2.5,2.8-3.8,4.3c-0.6-0.8-1.2-1.4-1.8-2.2
			C33.4,281.1,34.4,279.8,35.4,278.6z M276.7,280.7c0.1,0,0.1,0.1,0.2,0.1c-0.4,0.6-0.8,1.2-1.3,1.9c-0.2-0.2-0.4-0.3-0.6-0.5
			C275.6,281.7,276.1,281.2,276.7,280.7z M274.1,283.4c0.1,0,0.3,0,0.4,0.1c0.2,0.1,0.3,0.4,0.4,0.6c-0.3,0.1-0.5,0.3-0.8,0.3
			c-0.4,0.1-0.9,0.1-1.3,0.1c-0.1-0.1-0.1-0.1-0.1-0.2c0.3-0.3,0.6-0.6,1-0.8C273.8,283.4,274,283.4,274.1,283.4z M31.4,284.4
			c1.2,0.8,1.4,1.3,1.2,2.6c-0.7-0.2-1.3-0.5-2.1-0.8C30.9,285.5,31.1,285,31.4,284.4z M34.2,290.3c0.1,0,0.2,0,0.4,0
			c0.4,0,0.7,0.1,1,0.1c0.4,0,0.8,0.1,1.2,0.1c0,0.2,0.1,0.3,0.1,0.4c-3,2.4-5.7,5.2-9.5,7.2c0.1-0.4,0.2-0.6,0.3-0.8
			c1-1.6,2-3.1,3-4.6c0.8-1.3,2.1-1.8,3.4-2.4C34.2,290.4,34.2,290.3,34.2,290.3z"/>
		<path id="path6320" class="st4" d="M52.1,270.7C21.6,242.6,2.5,202.4,2.5,157.6C2.5,72.7,71.3,3.8,156.3,3.8
			C241.2,3.8,310,72.7,310,157.6c0,41.9-16.7,79.8-43.9,107.6"/>
	</g>
	<circle class="st5" cx="156.3" cy="156.8" r="152.8"/>
</g>
</svg>
